<svg width="27" height="25" viewBox="0 0 27 25" fill="none" xmlns="http://www.w3.org/2000/svg">
<path fill-rule="evenodd" clip-rule="evenodd" d="M6.03239 9.04695C6.03239 5.17516 9.46538 2.0437 13.71 2.0437C17.9546 2.0437 21.3876 5.17516 21.3876 9.04695C21.3876 13.2189 16.5397 18.9716 14.5545 21.1626C14.1158 21.6428 13.3151 21.6428 12.8764 21.1626C10.8803 18.9716 6.03239 13.2189 6.03239 9.04695ZM10.968 9.04695C10.968 10.4276 12.1964 11.5481 13.71 11.5481C15.2236 11.5481 16.452 10.4276 16.452 9.04695C16.452 7.66631 15.2236 6.54579 13.71 6.54579C12.1964 6.54579 10.968 7.66631 10.968 9.04695Z" fill="#30CDBD"/>
</svg>
