<svg width="46" height="43" viewBox="0 0 46 43" fill="none" xmlns="http://www.w3.org/2000/svg">
<path d="M41.9212 1.62256H4.08256C2.7865 1.62256 1.73584 2.6047 1.73584 3.81623V39.1871C1.73584 40.3986 2.7865 41.3808 4.08256 41.3808H41.9212C43.2172 41.3808 44.2679 40.3986 44.2679 39.1871V3.81623C44.2679 2.6047 43.2172 1.62256 41.9212 1.62256Z" fill="#3D5A98"/>
<path d="M31.0786 41.3775V25.9815H36.6058L37.4323 19.9816H31.0786V16.1519C31.0786 14.4151 31.5961 13.2293 34.2591 13.2293H37.6588V7.85428C36.0125 7.6939 34.3581 7.61764 32.703 7.62584C27.8083 7.62584 24.4373 10.4141 24.4373 15.5573V19.9816H18.9102V25.9815H24.4373V41.3775H31.0786Z" fill="white"/>
</svg>
