<svg width="45" height="37" viewBox="0 0 45 37" fill="none" xmlns="http://www.w3.org/2000/svg">
<path d="M41.01 1.39612H3.99395C2.72606 1.39612 1.69824 2.24122 1.69824 3.2837V33.7191C1.69824 34.7616 2.72606 35.6067 3.99395 35.6067H41.01C42.2778 35.6067 43.3057 34.7616 43.3057 33.7191V3.2837C43.3057 2.24122 42.2778 1.39612 41.01 1.39612Z" fill="#3D5A98"/>
<path d="M30.4029 35.6038V22.356H35.81L36.6186 17.1934H30.4029V13.8981C30.4029 12.4036 30.9092 11.3832 33.5143 11.3832H36.84V6.75823C35.2296 6.62023 33.6112 6.55461 31.992 6.56167C27.2037 6.56167 23.9061 8.96089 23.9061 13.3864V17.1934H18.499V22.356H23.9061V35.6038H30.4029Z" fill="white"/>
</svg>
