<svg width="21" height="20" viewBox="0 0 21 20" fill="none" xmlns="http://www.w3.org/2000/svg">
<path d="M11.0641 19.4395H1.60867C1.00671 19.4395 0.519043 18.9834 0.519043 18.421V2.00664C0.519043 1.44412 1.00679 0.988281 1.60867 0.988281H19.1719C19.7736 0.988281 20.2614 1.44412 20.2614 2.00664V18.421C20.2614 18.9835 19.7736 19.4395 19.1719 19.4395H14.141V12.2942H16.7072L17.0915 9.5095H14.141V7.73167C14.141 6.92545 14.3806 6.37603 15.6176 6.37603L17.1953 6.37539V3.88477C16.9225 3.85083 15.9859 3.77501 14.8963 3.77501C12.6215 3.77501 11.0641 5.07273 11.0641 7.45589V9.5095H8.49132V12.2942H11.0641V19.4395Z" fill="#30CDBD"/>
</svg>
