<svg width="21" height="19" viewBox="0 0 21 19" fill="none" xmlns="http://www.w3.org/2000/svg">
<path d="M11.0639 18.1011H1.60843C1.00647 18.1011 0.518799 17.656 0.518799 17.1072V1.08669C0.518799 0.537674 1.00654 0.0927734 1.60843 0.0927734H19.1717C19.7734 0.0927734 20.2612 0.537674 20.2612 1.08669V17.1072C20.2612 17.6561 19.7733 18.1011 19.1717 18.1011H14.1408V11.1273H16.707L17.0912 8.40948H14.1408V6.67432C14.1408 5.88745 14.3803 5.35122 15.6173 5.35122L17.1951 5.35059V2.91975C16.9222 2.88662 15.9857 2.81263 14.896 2.81263C12.6212 2.81263 11.0639 4.0792 11.0639 6.40516V8.40948H8.49108V11.1273H11.0639V18.1011Z" fill="#30CDBD"/>
</svg>
