<svg width="44" height="44" viewBox="0 0 44 44" fill="none" xmlns="http://www.w3.org/2000/svg">
<path d="M23.431 43.7661H3.17552C1.88599 43.7661 0.841309 42.6884 0.841309 41.3595V2.57135C0.841309 1.24209 1.88616 0.164917 3.17552 0.164917H40.7995C42.0886 0.164917 43.1336 1.24209 43.1336 2.57135V41.3595C43.1336 42.6886 42.0884 43.7661 40.7995 43.7661H30.0224V26.8813H35.5197L36.3428 20.301H30.0224V16.0999C30.0224 14.1948 30.5355 12.8965 33.1855 12.8965L36.5653 12.895V7.00948C35.9808 6.92929 33.9745 6.75013 31.6403 6.75013C26.7672 6.75013 23.431 9.8167 23.431 15.4482V20.301H17.9196V26.8813H23.431V43.7661Z" fill="#0081FE"/>
</svg>
