<svg width="140" height="88" viewBox="0 0 140 88" fill="none" xmlns="http://www.w3.org/2000/svg">
<g clip-path="url(#clip0_58_4191)">
<ellipse cx="110.347" cy="59.6216" rx="29.6528" ry="27.6216" fill="#D9F5EE"/>
<g clip-path="url(#clip1_58_4191)">
<path d="M116.988 59.6216C116.988 60.0105 116.828 60.3994 116.51 60.696L106.492 70.0276C105.855 70.6212 104.822 70.6212 104.185 70.0276C103.548 69.4343 103.548 68.472 104.185 67.8783L113.049 59.6216L104.185 51.3647C103.548 50.7711 103.548 49.8089 104.185 49.2156C104.822 48.6217 105.855 48.6217 106.492 49.2156L116.51 58.5471C116.829 58.8438 116.988 59.2327 116.988 59.6216Z" fill="#252A34"/>
</g>
<ellipse cx="29.8611" cy="59.6216" rx="29.6528" ry="27.6216" fill="#D9F5EE"/>
<g clip-path="url(#clip2_58_4191)">
<path d="M23.2212 59.6216C23.2212 60.0105 23.3806 60.3994 23.6988 60.696L33.7168 70.0276C34.354 70.6212 35.3872 70.6212 36.0243 70.0276C36.6613 69.4343 36.6613 68.472 36.0243 67.8783L27.1598 59.6216L36.0239 51.3647C36.661 50.7711 36.661 49.8089 36.0239 49.2156C35.3869 48.6217 34.3537 48.6217 33.7165 49.2156L23.6985 58.5471C23.3802 58.8438 23.2212 59.2327 23.2212 59.6216Z" fill="#252A34"/>
</g>
</g>
<defs>
<clipPath id="clip0_58_4191">
<rect width="139.792" height="87.2433" fill="white" transform="translate(0.208374)"/>
</clipPath>
<clipPath id="clip1_58_4191">
<rect width="21.7027" height="23.2986" fill="white" transform="matrix(0 -1 1 0 98.6982 70.4729)"/>
</clipPath>
<clipPath id="clip2_58_4191">
<rect width="21.7027" height="23.2986" fill="white" transform="matrix(0 -1 -1 0 41.5107 70.4729)"/>
</clipPath>
</defs>
</svg>
