<svg width="396" height="25" viewBox="0 0 396 25" fill="none" xmlns="http://www.w3.org/2000/svg">
<g clip-path="url(#clip0_58_4691)">
<path fill-rule="evenodd" clip-rule="evenodd" d="M180.218 7.06399C180.81 7.6251 181.003 8.89929 181.003 8.89929C181.003 8.89929 181.201 10.396 181.201 11.8921V13.2951C181.201 14.7918 181.003 16.2879 181.003 16.2879C181.003 16.2879 180.81 17.5621 180.218 18.1232C179.542 18.787 178.792 18.8556 178.368 18.8943C178.321 18.8986 178.279 18.9025 178.241 18.9068C175.478 19.094 171.329 19.0998 171.329 19.0998C171.329 19.0998 166.196 19.0559 164.617 18.9137C164.542 18.9006 164.451 18.8904 164.349 18.8789C163.848 18.8227 163.063 18.7345 162.44 18.1232C161.848 17.5621 161.656 16.2879 161.656 16.2879C161.656 16.2879 161.458 14.7918 161.458 13.2951V11.8921C161.458 10.396 161.656 8.89929 161.656 8.89929C161.656 8.89929 161.848 7.6251 162.44 7.06399C163.118 6.39928 163.869 6.33144 164.293 6.29312C164.338 6.28897 164.381 6.28516 164.418 6.28098C167.181 6.09375 171.325 6.09375 171.325 6.09375H171.334C171.334 6.09375 175.478 6.09375 178.241 6.28098C178.278 6.28517 178.32 6.28898 178.366 6.29314C178.79 6.33146 179.541 6.39938 180.218 7.06399ZM169.29 9.79957L169.291 14.9952L174.624 12.4063L169.29 9.79957Z" fill="#59D9CC"/>
<path fill-rule="evenodd" clip-rule="evenodd" d="M223.975 3.09229C221.295 3.09229 220.958 3.10265 219.906 3.14647C218.855 3.19018 218.137 3.34241 217.509 3.56501C216.86 3.79508 216.31 4.10297 215.761 4.60354C215.212 5.10414 214.875 5.60628 214.622 6.19839C214.378 6.77112 214.212 7.42566 214.164 8.38405C214.116 9.34445 214.104 9.65108 214.104 12.0965C214.104 14.5419 214.116 14.8485 214.164 15.8089C214.212 16.7673 214.378 17.4218 214.622 17.9945C214.875 18.5867 215.212 19.0888 215.761 19.5894C216.31 20.09 216.86 20.3979 217.509 20.628C218.137 20.8505 218.855 21.0028 219.906 21.0465C220.958 21.0903 221.295 21.1006 223.975 21.1006C226.656 21.1006 226.992 21.0903 228.045 21.0465C229.096 21.0028 229.814 20.8505 230.441 20.628C231.091 20.3979 231.641 20.09 232.19 19.5894C232.739 19.0888 233.076 18.5867 233.328 17.9945C233.572 17.4218 233.739 16.7673 233.787 15.8089C233.835 14.8485 233.847 14.5419 233.847 12.0965C233.847 9.65108 233.835 9.34445 233.787 8.38405C233.739 7.42566 233.572 6.77112 233.328 6.19839C233.076 5.60628 232.739 5.10414 232.19 4.60354C231.641 4.10297 231.091 3.79508 230.441 3.56501C229.814 3.34241 229.096 3.19018 228.045 3.14647C226.992 3.10265 226.656 3.09229 223.975 3.09229ZM223.975 4.71462C226.611 4.71462 226.923 4.7238 227.964 4.76712C228.927 4.80715 229.449 4.95384 229.797 5.07715C230.258 5.24049 230.587 5.43561 230.932 5.75071C231.278 6.06578 231.491 6.36573 231.671 6.78602C231.806 7.1033 231.967 7.58007 232.01 8.45797C232.058 9.40742 232.068 9.69221 232.068 12.0964C232.068 14.5006 232.058 14.7854 232.01 15.7349C231.967 16.6128 231.806 17.0896 231.671 17.4068C231.491 17.8271 231.278 18.1271 230.932 18.4421C230.587 18.7572 230.258 18.9524 229.797 19.1157C229.449 19.239 228.927 19.3857 227.964 19.4257C226.923 19.4691 226.611 19.4782 223.975 19.4782C221.339 19.4782 221.027 19.4691 219.987 19.4257C219.024 19.3857 218.501 19.239 218.154 19.1157C217.693 18.9524 217.364 18.7572 217.019 18.4421C216.673 18.1271 216.459 17.8271 216.28 17.4068C216.145 17.0896 215.984 16.6128 215.94 15.7349C215.893 14.7854 215.883 14.5006 215.883 12.0964C215.883 9.69221 215.893 9.40742 215.94 8.45797C215.984 7.58007 216.145 7.1033 216.28 6.78602C216.459 6.36573 216.673 6.06578 217.019 5.75071C217.364 5.43561 217.693 5.24049 218.154 5.07715C218.501 4.95384 219.024 4.80715 219.987 4.76712C221.027 4.7238 221.34 4.71462 223.975 4.71462ZM218.907 12.0965C218.907 9.54286 221.176 7.47274 223.976 7.47274C226.775 7.47274 229.045 9.54286 229.045 12.0965C229.045 14.6502 226.775 16.7203 223.976 16.7203C221.176 16.7203 218.907 14.6502 218.907 12.0965ZM223.975 15.0979C222.158 15.0979 220.685 13.7541 220.685 12.0965C220.685 10.4389 222.158 9.09511 223.975 9.09511C225.793 9.09511 227.266 10.4389 227.266 12.0965C227.266 13.7541 225.793 15.0979 223.975 15.0979ZM229.245 8.37051C229.899 8.37051 230.429 7.88678 230.429 7.29002C230.429 6.69327 229.899 6.2095 229.245 6.2095C228.59 6.2095 228.06 6.69327 228.06 7.29002C228.06 7.88678 228.59 8.37051 229.245 8.37051Z" fill="#59D9CC"/>
<path fill-rule="evenodd" clip-rule="evenodd" d="M276.411 13.6836C275.431 13.6836 273.021 13.6864 273.021 13.6864V11.5072H279.044C279.463 14.144 278.198 18.0993 273.021 18.0993C269.558 18.0993 266.751 15.6357 266.751 12.5968C266.751 9.5578 269.558 7.09424 273.021 7.09424C274.646 7.09424 276.127 7.63665 277.241 8.52643C276.378 9.2418 276.101 9.5145 275.866 9.7462C275.744 9.86673 275.633 9.97617 275.456 10.131C274.812 9.66344 274.109 9.32795 273.021 9.32795C270.964 9.32795 269.359 10.7915 269.359 12.5968C269.359 14.4021 270.964 15.8656 273.021 15.8656C275.054 15.8656 275.88 15.0963 276.411 13.6836ZM284.321 9.70916V11.616H286.493V12.978H284.321V14.9393H282.769V12.978H280.534V11.616H282.769V9.70916H284.321Z" fill="#59D9CC"/>
<path fill-rule="evenodd" clip-rule="evenodd" d="M111.136 7.8658H111.108C109.715 7.8658 108.812 7.03453 108.812 5.98082C108.812 4.90662 109.742 4.09277 111.163 4.09277C112.582 4.09277 113.455 4.90457 113.483 5.97775C113.483 7.03145 112.582 7.8658 111.136 7.8658ZM128.554 20.1003H124.191V14.4731C124.191 13.0001 123.509 11.9946 122.008 11.9946C120.86 11.9946 120.221 12.6732 119.924 13.3271C119.826 13.5338 119.828 13.812 119.83 14.0987V14.0987C119.83 14.1376 119.83 14.1767 119.83 14.2158V20.1003H115.507C115.507 20.1003 115.563 10.1322 115.507 9.22608H119.83V10.9327C120.085 10.1865 121.467 9.12153 123.671 9.12153C126.406 9.12153 128.554 10.6857 128.554 14.0538V20.1003ZM113.158 9.22608H109.31V20.1003H113.158V9.22608Z" fill="#30CDBD"/>
<path d="M14.0639 21.1006H4.60843C4.00647 21.1006 3.5188 20.6555 3.5188 20.1067V4.0862C3.5188 3.53719 4.00654 3.09229 4.60843 3.09229H22.1717C22.7734 3.09229 23.2612 3.53719 23.2612 4.0862V20.1067C23.2612 20.6556 22.7733 21.1006 22.1717 21.1006H17.1408V14.1268H19.707L20.0912 11.409H17.1408V9.67383C17.1408 8.88696 17.3803 8.35073 18.6173 8.35073L20.1951 8.3501V5.91926C19.9222 5.88614 18.9857 5.81214 17.896 5.81214C15.6212 5.81214 14.0639 7.07871 14.0639 9.40467V11.409H11.4911V14.1268H14.0639V21.1006V21.1006Z" fill="#30CDBD"/>
<path d="M329.269 3.09229C323.818 3.09229 319.397 7.12344 319.397 12.097C319.397 15.783 321.828 18.9511 325.307 20.3435C325.279 19.7156 325.302 18.9596 325.478 18.2756C325.668 17.5449 326.748 13.3698 326.748 13.3698C326.748 13.3698 326.433 12.7948 326.433 11.9445C326.433 10.6103 327.282 9.61392 328.337 9.61392C329.234 9.61392 329.668 10.2291 329.668 10.9661C329.668 11.7889 329.093 13.0203 328.797 14.1608C328.549 15.1169 329.321 15.8952 330.354 15.8952C332.225 15.8952 333.484 13.7044 333.484 11.108C333.484 9.13531 332.027 7.65817 329.377 7.65817C326.383 7.65817 324.518 9.6944 324.518 11.9689C324.518 12.7546 324.771 13.3073 325.168 13.7351C325.351 13.9331 325.376 14.0115 325.309 14.2381C325.263 14.4022 325.154 14.8024 325.109 14.9602C325.042 15.1879 324.84 15.2705 324.615 15.1857C323.235 14.6722 322.593 13.2946 322.593 11.7454C322.593 9.18825 324.958 6.11962 329.647 6.11962C333.417 6.11962 335.897 8.60905 335.897 11.2785C335.897 14.8109 333.745 17.4496 330.57 17.4496C329.506 17.4496 328.503 16.9244 328.159 16.3283C328.159 16.3283 327.586 18.4026 327.465 18.8029C327.256 19.4964 326.846 20.1911 326.471 20.7311C327.359 20.9704 328.297 21.1006 329.269 21.1006C334.72 21.1006 339.14 17.0695 339.14 12.097C339.14 7.12344 334.72 3.09229 329.269 3.09229" fill="#59D9CC"/>
<path fill-rule="evenodd" clip-rule="evenodd" d="M391.786 21.1006H388.026C388.026 13.0618 380.857 6.52224 372.044 6.52224V3.09229C382.93 3.09229 391.786 11.171 391.786 21.1006ZM372.044 18.528C372.044 17.1073 373.307 15.9554 374.864 15.9554C376.422 15.9554 377.685 17.1073 377.685 18.528C377.685 19.9487 376.422 21.1006 374.864 21.1006C373.307 21.1006 372.044 19.9487 372.044 18.528ZM381.445 21.1006H385.205C385.205 14.4806 379.301 9.09485 372.044 9.09485V12.5254C377.227 12.5254 381.445 16.3722 381.445 21.1006Z" fill="#59D9CC"/>
<path d="M75.9076 6.86982C75.1822 7.17115 74.4012 7.37493 73.5819 7.46598C74.4185 6.99772 75.0605 6.25523 75.363 5.37075C74.5796 5.80432 73.714 6.11974 72.7893 6.28883C72.0523 5.55285 70.9989 5.09326 69.8332 5.09326C67.5979 5.09326 65.7844 6.78961 65.7844 8.88159C65.7844 9.17858 65.8191 9.46691 65.8886 9.74439C62.5223 9.58614 59.5384 8.07948 57.5395 5.78481C57.1907 6.34628 56.9914 6.99772 56.9914 7.69144C56.9914 9.00516 57.7064 10.165 58.7933 10.8446C58.1305 10.8262 57.5048 10.6538 56.9578 10.372V10.4186C56.9578 12.2548 58.3542 13.7864 60.2082 14.1332C59.8687 14.2221 59.5106 14.2665 59.141 14.2665C58.8803 14.2665 58.6253 14.2438 58.3785 14.1993C58.8942 15.7038 60.389 16.7997 62.162 16.8289C60.776 17.8457 59.0286 18.4516 57.1316 18.4516C56.8048 18.4516 56.4815 18.4342 56.1652 18.3996C57.9578 19.4726 60.0877 20.1002 62.374 20.1002C69.8251 20.1002 73.8982 14.3283 73.8982 9.32166C73.8982 9.1569 73.8948 8.99215 73.8878 8.83064C74.6793 8.29627 75.3664 7.62965 75.9076 6.86982" fill="#59D9CC"/>
</g>
<defs>
<clipPath id="clip0_58_4691">
<rect width="394.848" height="24.0112" fill="white" transform="translate(0.2285 0.0909424)"/>
</clipPath>
</defs>
</svg>
