<svg width="21" height="12" viewBox="0 0 21 12" fill="none" xmlns="http://www.w3.org/2000/svg">
<path fill-rule="evenodd" clip-rule="evenodd" d="M10.4114 6.68406C9.43052 6.68406 7.02145 6.6869 7.02145 6.6869V4.50767H13.0435C13.4629 7.14454 12.1978 11.0998 7.02145 11.0998C3.5584 11.0998 0.751068 8.63622 0.751068 5.59728C0.751068 2.55829 3.5584 0.0947266 7.02145 0.0947266C8.64642 0.0947266 10.127 0.637137 11.2409 1.52692C10.3777 2.24229 10.101 2.51499 9.86584 2.74669C9.74353 2.86722 9.63247 2.97666 9.45598 3.13154C8.81162 2.66393 8.10915 2.32844 7.02145 2.32844C4.96421 2.32844 3.35856 3.79195 3.35856 5.59728C3.35856 7.40261 4.96421 8.86613 7.02145 8.86613C9.0543 8.86613 9.88025 8.0968 10.4114 6.68406ZM18.3206 2.70964V4.61647H20.4935V5.97849H18.3206V7.9398H16.7685V5.97849H14.5335V4.61647H16.7685V2.70964H18.3206Z" fill="#59D9CC"/>
</svg>
