<svg width="27" height="25" viewBox="0 0 27 25" fill="none" xmlns="http://www.w3.org/2000/svg">
<path fill-rule="evenodd" clip-rule="evenodd" d="M13.4115 13.6837C12.4306 13.6837 10.0215 13.6865 10.0215 13.6865V11.5073H16.0436C16.463 14.1442 15.1978 18.0995 10.0215 18.0995C6.55846 18.0995 3.75113 15.6359 3.75113 12.5969C3.75113 9.55793 6.55846 7.09436 10.0215 7.09436C11.6465 7.09436 13.127 7.63677 14.241 8.52655C13.3778 9.24192 13.101 9.51462 12.8659 9.74633C12.7436 9.86685 12.6325 9.97629 12.456 10.1312C11.8117 9.66356 11.1092 9.32807 10.0215 9.32807C7.96427 9.32807 6.35862 10.7916 6.35862 12.5969C6.35862 14.4022 7.96427 15.8658 10.0215 15.8658C12.0544 15.8658 12.8803 15.0964 13.4115 13.6837ZM21.3206 9.70928V11.6161H23.4935V12.9781H21.3206V14.9394H19.7685V12.9781H17.5336V11.6161H19.7685V9.70928H21.3206Z" fill="#59D9CC"/>
</svg>
