<svg width="21" height="12" viewBox="0 0 21 12" fill="none" xmlns="http://www.w3.org/2000/svg">
<path fill-rule="evenodd" clip-rule="evenodd" d="M10.4113 6.83999C9.43043 6.83999 7.02136 6.8429 7.02136 6.8429V4.61008H13.0434C13.4629 7.31179 12.1977 11.3644 7.02136 11.3644C3.55831 11.3644 0.750977 8.84015 0.750977 5.72649C0.750977 2.61277 3.55831 0.088623 7.02136 0.088623C8.64632 0.088623 10.1269 0.644371 11.2408 1.55603C10.3776 2.28899 10.1009 2.5684 9.86575 2.8058C9.74344 2.92929 9.63238 3.04142 9.45589 3.20011C8.81153 2.721 8.10906 2.37726 7.02136 2.37726C4.96412 2.37726 3.35846 3.87677 3.35846 5.72649C3.35846 7.57621 4.96412 9.07571 7.02136 9.07571C9.05421 9.07571 9.88016 8.28747 10.4113 6.83999ZM18.3205 2.76784V4.72156H20.4934V6.11707H18.3205V8.1266H16.7684V6.11707H14.5334V4.72156H16.7684V2.76784H18.3205Z" fill="#59D9CC"/>
</svg>
