<svg width="27" height="25" viewBox="0 0 27 25" fill="none" xmlns="http://www.w3.org/2000/svg">
<path fill-rule="evenodd" clip-rule="evenodd" d="M13.4113 13.6836C12.4304 13.6836 10.0214 13.6864 10.0214 13.6864V11.5072H16.0434C16.4629 14.144 15.1977 18.0993 10.0214 18.0993C6.55831 18.0993 3.75098 15.6357 3.75098 12.5968C3.75098 9.5578 6.55831 7.09424 10.0214 7.09424C11.6463 7.09424 13.1269 7.63665 14.2408 8.52643C13.3776 9.2418 13.1009 9.5145 12.8657 9.7462C12.7434 9.86673 12.6324 9.97617 12.4559 10.131C11.8115 9.66344 11.1091 9.32795 10.0214 9.32795C7.96412 9.32795 6.35846 10.7915 6.35846 12.5968C6.35846 14.4021 7.96412 15.8656 10.0214 15.8656C12.0542 15.8656 12.8802 15.0963 13.4113 13.6836ZM21.3205 9.70916V11.616H23.4934V12.978H21.3205V14.9393H19.7684V12.978H17.5334V11.616H19.7684V9.70916H21.3205Z" fill="#59D9CC"/>
</svg>
