<svg width="396" height="25" viewBox="0 0 396 25" fill="none" xmlns="http://www.w3.org/2000/svg">
<path d="M14.0641 21.1006H4.60867C4.00671 21.1006 3.51904 20.6555 3.51904 20.1067V4.0862C3.51904 3.53719 4.00679 3.09229 4.60867 3.09229H22.1719C22.7736 3.09229 23.2614 3.53719 23.2614 4.0862V20.1067C23.2614 20.6556 22.7736 21.1006 22.1719 21.1006H17.141V14.1268H19.7072L20.0915 11.409H17.141V9.67383C17.141 8.88696 17.3806 8.35073 18.6176 8.35073L20.1953 8.3501V5.91926C19.9225 5.88614 18.9859 5.81214 17.8963 5.81214C15.6215 5.81214 14.0641 7.07871 14.0641 9.40467V11.409H11.4913V14.1268H14.0641V21.1006Z" fill="#30CDBD"/>
<path d="M329.269 3.09229C323.818 3.09229 319.397 7.12344 319.397 12.097C319.397 15.783 321.828 18.9511 325.307 20.3435C325.279 19.7156 325.303 18.9596 325.478 18.2756C325.668 17.5449 326.748 13.3698 326.748 13.3698C326.748 13.3698 326.433 12.7948 326.433 11.9445C326.433 10.6103 327.282 9.61392 328.337 9.61392C329.234 9.61392 329.669 10.2291 329.669 10.9661C329.669 11.7889 329.093 13.0203 328.797 14.1608C328.55 15.1169 329.321 15.8952 330.355 15.8952C332.225 15.8952 333.484 13.7044 333.484 11.108C333.484 9.13531 332.027 7.65817 329.377 7.65817C326.383 7.65817 324.518 9.6944 324.518 11.9689C324.518 12.7546 324.771 13.3073 325.168 13.7351C325.351 13.9331 325.376 14.0115 325.31 14.2381C325.263 14.4022 325.154 14.8024 325.109 14.9602C325.043 15.1879 324.841 15.2705 324.615 15.1857C323.235 14.6722 322.593 13.2946 322.593 11.7454C322.593 9.18825 324.958 6.11962 329.648 6.11962C333.417 6.11962 335.898 8.60905 335.898 11.2785C335.898 14.8109 333.745 17.4496 330.571 17.4496C329.506 17.4496 328.503 16.9244 328.159 16.3283C328.159 16.3283 327.586 18.4026 327.465 18.8029C327.256 19.4964 326.847 20.1911 326.472 20.7311C327.36 20.9704 328.298 21.1006 329.269 21.1006C334.721 21.1006 339.14 17.0695 339.14 12.097C339.14 7.12344 334.721 3.09229 329.269 3.09229Z" fill="#59D9CC"/>
<path fill-rule="evenodd" clip-rule="evenodd" d="M391.786 21.1006H388.026C388.026 13.0618 380.857 6.52224 372.044 6.52224V3.09229C382.93 3.09229 391.786 11.171 391.786 21.1006ZM372.044 18.528C372.044 17.1073 373.307 15.9554 374.865 15.9554C376.422 15.9554 377.685 17.1073 377.685 18.528C377.685 19.9487 376.422 21.1006 374.865 21.1006C373.307 21.1006 372.044 19.9487 372.044 18.528ZM381.445 21.1006H385.206C385.206 14.4806 379.301 9.09485 372.044 9.09485V12.5254C377.228 12.5254 381.445 16.3722 381.445 21.1006Z" fill="#59D9CC"/>
</svg>
