<svg width="396" height="25" viewBox="0 0 396 25" fill="none" xmlns="http://www.w3.org/2000/svg">
<path d="M14.0639 21.1008H4.60849C4.00653 21.1008 3.51886 20.6557 3.51886 20.1068V4.08632C3.51886 3.53731 4.0066 3.09241 4.60849 3.09241H22.1717C22.7734 3.09241 23.2613 3.53731 23.2613 4.08632V20.1068C23.2613 20.6557 22.7734 21.1008 22.1717 21.1008H17.1408V14.1269H19.707L20.0913 11.4091H17.1408V9.67395C17.1408 8.88708 17.3804 8.35085 18.6174 8.35085L20.1952 8.35022V5.91938C19.9223 5.88626 18.9857 5.81226 17.8961 5.81226C15.6213 5.81226 14.0639 7.07883 14.0639 9.40479V11.4091H11.4911V14.1269H14.0639V21.1008Z" fill="#30CDBD"/>
<path d="M329.269 3.09241C323.818 3.09241 319.397 7.12356 319.397 12.0971C319.397 15.7831 321.828 18.9512 325.307 20.3437C325.279 19.7158 325.303 18.9597 325.478 18.2757C325.668 17.5451 326.748 13.3699 326.748 13.3699C326.748 13.3699 326.433 12.7949 326.433 11.9446C326.433 10.6105 327.282 9.61405 328.337 9.61405C329.234 9.61405 329.668 10.2293 329.668 10.9662C329.668 11.789 329.093 13.0205 328.797 14.1609C328.549 15.117 329.321 15.8953 330.355 15.8953C332.225 15.8953 333.484 13.7045 333.484 11.1081C333.484 9.13543 332.027 7.6583 329.377 7.6583C326.383 7.6583 324.518 9.69452 324.518 11.969C324.518 12.7547 324.771 13.3074 325.168 13.7352C325.351 13.9332 325.376 14.0116 325.309 14.2382C325.263 14.4023 325.154 14.8026 325.109 14.9603C325.043 15.188 324.841 15.2706 324.615 15.1859C323.235 14.6723 322.593 13.2947 322.593 11.7456C322.593 9.18838 324.958 6.11974 329.648 6.11974C333.417 6.11974 335.898 8.60917 335.898 11.2786C335.898 14.811 333.745 17.4498 330.57 17.4498C329.506 17.4498 328.503 16.9246 328.159 16.3284C328.159 16.3284 327.586 18.4027 327.465 18.803C327.256 19.4966 326.846 20.1912 326.471 20.7312C327.36 20.9705 328.297 21.1008 329.269 21.1008C334.72 21.1008 339.14 17.0696 339.14 12.0971C339.14 7.12356 334.72 3.09241 329.269 3.09241Z" fill="#59D9CC"/>
<path fill-rule="evenodd" clip-rule="evenodd" d="M391.786 21.1008H388.026C388.026 13.062 380.857 6.52236 372.044 6.52236V3.09241C382.93 3.09241 391.786 11.1711 391.786 21.1008ZM372.044 18.5281C372.044 17.1074 373.307 15.9555 374.865 15.9555C376.422 15.9555 377.685 17.1074 377.685 18.5281C377.685 19.9488 376.422 21.1007 374.865 21.1007C373.307 21.1007 372.044 19.9488 372.044 18.5281ZM381.445 21.1008H385.205C385.205 14.4808 379.301 9.09497 372.044 9.09497V12.5256C377.227 12.5256 381.445 16.3723 381.445 21.1008Z" fill="#59D9CC"/>
</svg>
