<svg width="20" height="20" viewBox="0 0 20 20" fill="none" xmlns="http://www.w3.org/2000/svg">
<path fill-rule="evenodd" clip-rule="evenodd" d="M9.97523 0.988281C7.29435 0.988281 6.95819 0.998901 5.90532 1.0438C4.85465 1.08859 4.13707 1.24456 3.50919 1.47263C2.86007 1.70836 2.30958 2.02381 1.76077 2.53669C1.212 3.04961 0.874475 3.5641 0.622249 4.17076C0.378212 4.75758 0.211328 5.42822 0.163407 6.41018C0.115367 7.39418 0.104004 7.70836 0.104004 10.2139C0.104004 12.7194 0.115367 13.0336 0.163407 14.0176C0.211328 14.9995 0.378212 15.6702 0.622249 16.257C0.874475 16.8637 1.212 17.3781 1.76077 17.8911C2.30958 18.4039 2.86007 18.7194 3.50919 18.9552C4.13707 19.1832 4.85465 19.3392 5.90532 19.384C6.95819 19.4289 7.29435 19.4395 9.97523 19.4395C12.6561 19.4395 12.9922 19.4289 14.0451 19.384C15.0958 19.3392 15.8133 19.1832 16.4412 18.9552C17.0903 18.7194 17.6408 18.4039 18.1896 17.8911C18.7384 17.3781 19.0759 16.8637 19.3282 16.257C19.5722 15.6702 19.7391 14.9995 19.787 14.0176C19.835 13.0336 19.8464 12.7194 19.8464 10.2139C19.8464 7.70836 19.835 7.39418 19.787 6.41018C19.7391 5.42822 19.5722 4.75758 19.3282 4.17076C19.0759 3.5641 18.7384 3.04961 18.1896 2.53669C17.6408 2.02381 17.0903 1.70836 16.4412 1.47263C15.8133 1.24456 15.0958 1.08859 14.0451 1.0438C12.9922 0.998901 12.6561 0.988281 9.97523 0.988281ZM9.97521 2.65051C12.6109 2.65051 12.9231 2.65992 13.964 2.7043C14.9264 2.74532 15.4491 2.89561 15.7969 3.02196C16.2577 3.18931 16.5865 3.38923 16.9319 3.71208C17.2774 4.03489 17.4913 4.34222 17.6704 4.77285C17.8055 5.09793 17.9664 5.58642 18.0102 6.48591C18.0577 7.45871 18.0678 7.7505 18.0678 10.2139C18.0678 12.6772 18.0577 12.969 18.0102 13.9418C17.9664 14.8413 17.8055 15.3297 17.6704 15.6548C17.4913 16.0855 17.2774 16.3928 16.9319 16.7156C16.5865 17.0384 16.2577 17.2384 15.7969 17.4057C15.4491 17.5321 14.9264 17.6824 13.964 17.7234C12.9233 17.7678 12.6111 17.7772 9.97521 17.7772C7.33928 17.7772 7.02714 17.7678 5.98638 17.7234C5.02394 17.6824 4.50127 17.5321 4.15344 17.4057C3.69267 17.2384 3.36384 17.0384 3.01844 16.7156C2.67303 16.3928 2.45909 16.0855 2.28002 15.6548C2.14484 15.3297 1.98403 14.8413 1.94014 13.9418C1.89265 12.969 1.88258 12.6772 1.88258 10.2139C1.88258 7.7505 1.89265 7.45871 1.94014 6.48591C1.98403 5.58642 2.14484 5.09793 2.28002 4.77285C2.45909 4.34222 2.67299 4.03489 3.01844 3.71208C3.36384 3.38923 3.69267 3.18931 4.15344 3.02196C4.50127 2.89561 5.02394 2.74532 5.98638 2.7043C7.02726 2.65992 7.33947 2.65051 9.97521 2.65051ZM4.90649 10.2139C4.90649 7.59747 7.17594 5.47645 9.9755 5.47645C12.775 5.47645 15.0445 7.59747 15.0445 10.2139C15.0445 12.8304 12.775 14.9514 9.9755 14.9514C7.17594 14.9514 4.90649 12.8304 4.90649 10.2139ZM9.97525 13.2891C8.15798 13.2891 6.68483 11.9123 6.68483 10.2139C6.68483 8.51553 8.15798 7.13872 9.97525 7.13872C11.7925 7.13872 13.2656 8.51553 13.2656 10.2139C13.2656 11.9123 11.7925 13.2891 9.97525 13.2891ZM15.2444 6.3963C15.8986 6.3963 16.4289 5.90067 16.4289 5.28924C16.4289 4.67782 15.8986 4.18215 15.2444 4.18215C14.5902 4.18215 14.0599 4.67782 14.0599 5.28924C14.0599 5.90067 14.5902 6.3963 15.2444 6.3963Z" fill="#59D9CC"/>
</svg>
