<svg width="28" height="25" viewBox="0 0 28 25" fill="none" xmlns="http://www.w3.org/2000/svg">
<path fill-rule="evenodd" clip-rule="evenodd" d="M13.9755 3.09241C11.2946 3.09241 10.9584 3.10277 9.90557 3.14659C8.85489 3.1903 8.13732 3.34253 7.50944 3.56513C6.86032 3.79521 6.30983 4.10309 5.76102 4.60366C5.21225 5.10426 4.87472 5.6064 4.62249 6.19851C4.37846 6.77124 4.21157 7.42579 4.16365 8.38418C4.11561 9.34457 4.10425 9.6512 4.10425 12.0966C4.10425 14.542 4.11561 14.8486 4.16365 15.809C4.21157 16.7674 4.37846 17.4219 4.62249 17.9947C4.87472 18.5868 5.21225 19.0889 5.76102 19.5895C6.30983 20.0901 6.86032 20.398 7.50944 20.6281C8.13732 20.8506 8.85489 21.0029 9.90557 21.0466C10.9584 21.0904 11.2946 21.1008 13.9755 21.1008C16.6563 21.1008 16.9925 21.0904 18.0453 21.0466C19.096 21.0029 19.8136 20.8506 20.4415 20.6281C21.0906 20.398 21.6411 20.0901 22.1899 19.5895C22.7387 19.0889 23.0762 18.5868 23.3284 17.9947C23.5724 17.4219 23.7393 16.7674 23.7873 15.809C23.8353 14.8486 23.8467 14.542 23.8467 12.0966C23.8467 9.6512 23.8353 9.34457 23.7873 8.38418C23.7393 7.42579 23.5724 6.77124 23.3284 6.19851C23.0762 5.6064 22.7387 5.10426 22.1899 4.60366C21.6411 4.10309 21.0906 3.79521 20.4415 3.56513C19.8136 3.34253 19.096 3.1903 18.0453 3.14659C16.9925 3.10277 16.6563 3.09241 13.9755 3.09241ZM13.9755 4.71474C16.6112 4.71474 16.9234 4.72393 17.9642 4.76725C18.9267 4.80728 19.4494 4.95396 19.7972 5.07727C20.2579 5.24061 20.5868 5.43573 20.9322 5.75083C21.2776 6.0659 21.4915 6.36585 21.6706 6.78614C21.8058 7.10342 21.9666 7.58019 22.0105 8.45809C22.058 9.40754 22.068 9.69234 22.068 12.0966C22.068 14.5008 22.058 14.7856 22.0105 15.735C21.9666 16.6129 21.8058 17.0897 21.6706 17.407C21.4915 17.8273 21.2776 18.1272 20.9322 18.4423C20.5868 18.7574 20.2579 18.9525 19.7972 19.1158C19.4494 19.2391 18.9267 19.3858 17.9642 19.4259C16.9235 19.4692 16.6113 19.4784 13.9755 19.4784C11.3395 19.4784 11.0274 19.4692 9.98662 19.4259C9.02419 19.3858 8.50152 19.2391 8.15368 19.1158C7.69292 18.9525 7.36409 18.7574 7.01868 18.4423C6.67328 18.1272 6.45933 17.8273 6.28026 17.407C6.14508 17.0897 5.98427 16.6129 5.94038 15.735C5.89289 14.7856 5.88282 14.5008 5.88282 12.0966C5.88282 9.69234 5.89289 9.40754 5.94038 8.45809C5.98427 7.58019 6.14508 7.10342 6.28026 6.78614C6.45933 6.36585 6.67324 6.0659 7.01868 5.75083C7.36409 5.43573 7.69292 5.24061 8.15368 5.07727C8.50152 4.95396 9.02419 4.80728 9.98662 4.76725C11.0275 4.72393 11.3397 4.71474 13.9755 4.71474ZM8.90673 12.0966C8.90673 9.54298 11.1762 7.47286 13.9757 7.47286C16.7753 7.47286 19.0447 9.54298 19.0447 12.0966C19.0447 14.6503 16.7753 16.7204 13.9757 16.7204C11.1762 16.7204 8.90673 14.6503 8.90673 12.0966ZM13.9755 15.098C12.1582 15.098 10.6851 13.7543 10.6851 12.0966C10.6851 10.439 12.1582 9.09524 13.9755 9.09524C15.7927 9.09524 17.2659 10.439 17.2659 12.0966C17.2659 13.7543 15.7927 15.098 13.9755 15.098ZM19.2446 8.37063C19.8988 8.37063 20.4292 7.8869 20.4292 7.29015C20.4292 6.6934 19.8988 6.20963 19.2446 6.20963C18.5905 6.20963 18.0601 6.6934 18.0601 7.29015C18.0601 7.8869 18.5905 8.37063 19.2446 8.37063Z" fill="#59D9CC"/>
</svg>
