<svg width="20" height="19" viewBox="0 0 20 19" fill="none" xmlns="http://www.w3.org/2000/svg">
<path fill-rule="evenodd" clip-rule="evenodd" d="M9.97541 0.0927734C7.29453 0.0927734 6.95837 0.103139 5.90551 0.146959C4.85483 0.190671 4.13726 0.342897 3.50938 0.565499C2.86026 0.795572 2.30976 1.10345 1.76096 1.60402C1.21219 2.10463 0.874658 2.60677 0.622432 3.19887C0.378395 3.77161 0.211511 4.42615 0.16359 5.38454C0.11555 6.34493 0.104187 6.65157 0.104187 9.09697C0.104187 11.5423 0.11555 11.849 0.16359 12.8094C0.211511 13.7678 0.378395 14.4223 0.622432 14.995C0.874658 15.5871 1.21219 16.0893 1.76096 16.5899C2.30976 17.0905 2.86026 17.3983 3.50938 17.6284C4.13726 17.851 4.85483 18.0032 5.90551 18.047C6.95837 18.0908 7.29453 18.1011 9.97541 18.1011C12.6562 18.1011 12.9924 18.0908 14.0453 18.047C15.0959 18.0032 15.8135 17.851 16.4414 17.6284C17.0905 17.3983 17.641 17.0905 18.1898 16.5899C18.7386 16.0893 19.0761 15.5871 19.3284 14.995C19.5724 14.4223 19.7393 13.7678 19.7872 12.8094C19.8352 11.849 19.8466 11.5423 19.8466 9.09697C19.8466 6.65157 19.8352 6.34493 19.7872 5.38454C19.7393 4.42615 19.5724 3.77161 19.3284 3.19887C19.0761 2.60677 18.7386 2.10463 18.1898 1.60402C17.641 1.10345 17.0905 0.795572 16.4414 0.565499C15.8135 0.342897 15.0959 0.190671 14.0453 0.146959C12.9924 0.103139 12.6562 0.0927734 9.97541 0.0927734ZM9.97539 1.71511C12.6111 1.71511 12.9233 1.72429 13.9642 1.76761C14.9266 1.80764 15.4493 1.95433 15.7971 2.07764C16.2579 2.24098 16.5867 2.4361 16.9321 2.7512C17.2776 3.06627 17.4915 3.36622 17.6705 3.78651C17.8057 4.10379 17.9665 4.58056 18.0104 5.45845C18.0579 6.40791 18.068 6.6927 18.068 9.09693C18.068 11.5011 18.0579 11.7859 18.0104 12.7354C17.9665 13.6133 17.8057 14.09 17.6705 14.4073C17.4915 14.8276 17.2776 15.1276 16.9321 15.4426C16.5867 15.7577 16.2579 15.9529 15.7971 16.1162C15.4493 16.2395 14.9266 16.3862 13.9642 16.4262C12.9235 16.4695 12.6113 16.4787 9.97539 16.4787C7.33946 16.4787 7.02732 16.4695 5.98656 16.4262C5.02413 16.3862 4.50145 16.2395 4.15362 16.1162C3.69286 15.9529 3.36403 15.7577 3.01862 15.4426C2.67322 15.1276 2.45927 14.8276 2.2802 14.4073C2.14502 14.09 1.98421 13.6133 1.94032 12.7354C1.89283 11.7859 1.88276 11.5011 1.88276 9.09693C1.88276 6.6927 1.89283 6.40791 1.94032 5.45845C1.98421 4.58056 2.14502 4.10379 2.2802 3.78651C2.45927 3.36622 2.67318 3.06627 3.01862 2.7512C3.36403 2.4361 3.69286 2.24098 4.15362 2.07764C4.50145 1.95433 5.02413 1.80764 5.98656 1.76761C7.02744 1.72429 7.33965 1.71511 9.97539 1.71511ZM4.90667 9.09702C4.90667 6.54334 7.17612 4.47323 9.97568 4.47323C12.7752 4.47323 15.0447 6.54334 15.0447 9.09702C15.0447 11.6506 12.7752 13.7208 9.97568 13.7208C7.17612 13.7208 4.90667 11.6506 4.90667 9.09702ZM9.97543 12.0984C8.15816 12.0984 6.68501 10.7546 6.68501 9.09701C6.68501 7.43936 8.15816 6.0956 9.97543 6.0956C11.7927 6.0956 13.2658 7.43936 13.2658 9.09701C13.2658 10.7546 11.7927 12.0984 9.97543 12.0984ZM15.2446 5.371C15.8988 5.371 16.4291 4.88726 16.4291 4.29051C16.4291 3.69376 15.8988 3.20999 15.2446 3.20999C14.5904 3.20999 14.06 3.69376 14.06 4.29051C14.06 4.88726 14.5904 5.371 15.2446 5.371Z" fill="#59D9CC"/>
</svg>
