<svg width="28" height="25" viewBox="0 0 28 25" fill="none" xmlns="http://www.w3.org/2000/svg">
<path fill-rule="evenodd" clip-rule="evenodd" d="M13.9752 3.09229C11.2943 3.09229 10.9582 3.10265 9.90532 3.14647C8.85465 3.19018 8.13707 3.34241 7.50919 3.56501C6.86007 3.79508 6.30958 4.10297 5.76077 4.60354C5.212 5.10414 4.87448 5.60628 4.62225 6.19839C4.37821 6.77112 4.21133 7.42566 4.16341 8.38405C4.11537 9.34445 4.104 9.65108 4.104 12.0965C4.104 14.5419 4.11537 14.8485 4.16341 15.8089C4.21133 16.7673 4.37821 17.4218 4.62225 17.9945C4.87448 18.5867 5.212 19.0888 5.76077 19.5894C6.30958 20.09 6.86007 20.3979 7.50919 20.628C8.13707 20.8505 8.85465 21.0028 9.90532 21.0465C10.9582 21.0903 11.2943 21.1006 13.9752 21.1006C16.6561 21.1006 16.9922 21.0903 18.0451 21.0465C19.0958 21.0028 19.8133 20.8505 20.4412 20.628C21.0903 20.3979 21.6408 20.09 22.1896 19.5894C22.7384 19.0888 23.0759 18.5867 23.3282 17.9945C23.5722 17.4218 23.7391 16.7673 23.787 15.8089C23.835 14.8485 23.8464 14.5419 23.8464 12.0965C23.8464 9.65108 23.835 9.34445 23.787 8.38405C23.7391 7.42566 23.5722 6.77112 23.3282 6.19839C23.0759 5.60628 22.7384 5.10414 22.1896 4.60354C21.6408 4.10297 21.0903 3.79508 20.4412 3.56501C19.8133 3.34241 19.0958 3.19018 18.0451 3.14647C16.9922 3.10265 16.6561 3.09229 13.9752 3.09229ZM13.9752 4.71462C16.6109 4.71462 16.9231 4.7238 17.964 4.76712C18.9264 4.80715 19.4491 4.95384 19.7969 5.07715C20.2577 5.24049 20.5865 5.43561 20.9319 5.75071C21.2774 6.06578 21.4913 6.36573 21.6704 6.78602C21.8055 7.1033 21.9664 7.58007 22.0102 8.45797C22.0577 9.40742 22.0678 9.69221 22.0678 12.0964C22.0678 14.5006 22.0577 14.7854 22.0102 15.7349C21.9664 16.6128 21.8055 17.0896 21.6704 17.4068C21.4913 17.8271 21.2774 18.1271 20.9319 18.4421C20.5865 18.7572 20.2577 18.9524 19.7969 19.1157C19.4491 19.239 18.9264 19.3857 17.964 19.4257C16.9233 19.4691 16.6111 19.4782 13.9752 19.4782C11.3393 19.4782 11.0271 19.4691 9.98638 19.4257C9.02394 19.3857 8.50127 19.239 8.15344 19.1157C7.69267 18.9524 7.36384 18.7572 7.01844 18.4421C6.67303 18.1271 6.45909 17.8271 6.28002 17.4068C6.14484 17.0896 5.98403 16.6128 5.94014 15.7349C5.89265 14.7854 5.88258 14.5006 5.88258 12.0964C5.88258 9.69221 5.89265 9.40742 5.94014 8.45797C5.98403 7.58007 6.14484 7.1033 6.28002 6.78602C6.45909 6.36573 6.67299 6.06578 7.01844 5.75071C7.36384 5.43561 7.69267 5.24049 8.15344 5.07715C8.50127 4.95384 9.02394 4.80715 9.98638 4.76712C11.0273 4.7238 11.3395 4.71462 13.9752 4.71462ZM8.90649 12.0965C8.90649 9.54286 11.1759 7.47274 13.9755 7.47274C16.775 7.47274 19.0445 9.54286 19.0445 12.0965C19.0445 14.6502 16.775 16.7203 13.9755 16.7203C11.1759 16.7203 8.90649 14.6502 8.90649 12.0965ZM13.9752 15.0979C12.158 15.0979 10.6848 13.7541 10.6848 12.0965C10.6848 10.4389 12.158 9.09511 13.9752 9.09511C15.7925 9.09511 17.2656 10.4389 17.2656 12.0965C17.2656 13.7541 15.7925 15.0979 13.9752 15.0979ZM19.2444 8.37051C19.8986 8.37051 20.4289 7.88678 20.4289 7.29002C20.4289 6.69327 19.8986 6.2095 19.2444 6.2095C18.5902 6.2095 18.0599 6.69327 18.0599 7.29002C18.0599 7.88678 18.5902 8.37051 19.2444 8.37051Z" fill="#59D9CC"/>
</svg>
