<svg width="21" height="17" viewBox="0 0 21 17" fill="none" xmlns="http://www.w3.org/2000/svg">
<path fill-rule="evenodd" clip-rule="evenodd" d="M3.13588 3.87923H3.10802C1.71509 3.87923 0.812012 3.02752 0.812012 1.94791C0.812012 0.847291 1.74179 0.0134277 3.16257 0.0134277C4.5822 0.0134277 5.4551 0.845191 5.48296 1.94476C5.48296 3.02437 4.5822 3.87923 3.13588 3.87923ZM20.5543 16.4146H16.191V10.649C16.191 9.13982 15.5085 8.10957 14.0076 8.10957C12.8596 8.10957 12.2212 8.80481 11.924 9.47484C11.8259 9.68659 11.8277 9.9716 11.8295 10.2654V10.2654C11.8297 10.3053 11.83 10.3453 11.83 10.3854V16.4146H7.50727C7.50727 16.4146 7.56299 6.20135 7.50727 5.27296H11.83V7.02156C12.0854 6.25701 13.4667 5.16584 15.671 5.16584C18.4058 5.16584 20.5543 6.76846 20.5543 10.2194V16.4146ZM5.15782 5.27297H1.30986V16.4146H5.15782V5.27297Z" fill="#30CDBD"/>
</svg>
