<svg width="27" height="25" viewBox="0 0 27 25" fill="none" xmlns="http://www.w3.org/2000/svg">
<path fill-rule="evenodd" clip-rule="evenodd" d="M6.136 7.86592H6.10814C4.71521 7.86592 3.81213 7.03465 3.81213 5.98095C3.81213 4.90675 4.74191 4.0929 6.1627 4.0929C7.58232 4.0929 8.45522 4.9047 8.48308 5.97787C8.48308 7.03157 7.58232 7.86592 6.136 7.86592ZM23.5545 20.1004H19.1911V14.4732C19.1911 13.0003 18.5086 11.9947 17.0077 11.9947C15.8597 11.9947 15.2213 12.6733 14.9241 13.3272C14.826 13.5339 14.8278 13.8121 14.8296 14.0988V14.0988C14.8299 14.1377 14.8301 14.1768 14.8301 14.2159V20.1004H10.5074C10.5074 20.1004 10.5631 10.1323 10.5074 9.2262H14.8301V10.9328C15.0855 10.1866 16.4668 9.12165 18.6711 9.12165C21.4059 9.12165 23.5545 10.6858 23.5545 14.054V20.1004ZM8.15794 9.22621H4.30998V20.1004H8.15794V9.22621Z" fill="#30CDBD"/>
</svg>
