<svg width="27" height="25" viewBox="0 0 27 25" fill="none" xmlns="http://www.w3.org/2000/svg">
<path fill-rule="evenodd" clip-rule="evenodd" d="M6.13588 7.8658H6.10802C4.71509 7.8658 3.81201 7.03453 3.81201 5.98082C3.81201 4.90662 4.74179 4.09277 6.16257 4.09277C7.5822 4.09277 8.4551 4.90457 8.48296 5.97775C8.48296 7.03145 7.5822 7.8658 6.13588 7.8658ZM23.5543 20.1003H19.191V14.4731C19.191 13.0001 18.5085 11.9946 17.0076 11.9946C15.8596 11.9946 15.2212 12.6732 14.924 13.3271C14.8259 13.5338 14.8277 13.812 14.8295 14.0987V14.0987C14.8297 14.1376 14.83 14.1767 14.83 14.2158V20.1003H10.5073C10.5073 20.1003 10.563 10.1322 10.5073 9.22608H14.83V10.9327C15.0854 10.1865 16.4667 9.12153 18.671 9.12153C21.4058 9.12153 23.5543 10.6857 23.5543 14.0538V20.1003ZM8.15782 9.22608H4.30986V20.1003H8.15782V9.22608Z" fill="#30CDBD"/>
</svg>
