<svg width="21" height="17" viewBox="0 0 21 17" fill="none" xmlns="http://www.w3.org/2000/svg">
<path fill-rule="evenodd" clip-rule="evenodd" d="M3.13594 3.86629H3.10808C1.71515 3.86629 0.812073 3.03501 0.812073 1.98131C0.812073 0.907112 1.74185 0.0932617 3.16264 0.0932617C4.58226 0.0932617 5.45516 0.905062 5.48302 1.97824C5.48302 3.03194 4.58226 3.86629 3.13594 3.86629ZM20.5544 16.1008H16.1911V10.4735C16.1911 9.00062 15.5085 7.9951 14.0077 7.9951C12.8597 7.9951 12.2212 8.67365 11.9241 9.3276C11.826 9.53426 11.8277 9.81244 11.8295 10.0992V10.0992C11.8298 10.1381 11.83 10.1772 11.83 10.2163V16.1008H7.50733C7.50733 16.1008 7.56305 6.13267 7.50733 5.22657H11.83V6.9332C12.0854 6.187 13.4667 5.12202 15.671 5.12202C18.4058 5.12202 20.5544 6.68617 20.5544 10.0543V16.1008ZM5.15788 5.22657H1.30992V16.1008H5.15788V5.22657Z" fill="#30CDBD"/>
</svg>
