<svg width="21" height="20" viewBox="0 0 21 20" fill="none" xmlns="http://www.w3.org/2000/svg">
<path d="M10.2692 0.988281C4.81794 0.988281 0.397461 5.11856 0.397461 10.2144C0.397461 13.991 2.82826 17.2371 6.3073 18.6638C6.27944 18.0204 6.30265 17.2458 6.47794 16.5449C6.66832 15.7963 7.7479 11.5185 7.7479 11.5185C7.7479 11.5185 7.43331 10.9294 7.43331 10.0582C7.43331 8.6912 8.28189 7.67029 9.33709 7.67029C10.2344 7.67029 10.6686 8.30063 10.6686 9.05573C10.6686 9.89871 10.0928 11.1605 9.79678 12.3289C9.54952 13.3086 10.3215 14.106 11.3546 14.106C13.2247 14.106 14.4843 11.8613 14.4843 9.20111C14.4843 7.17991 13.0274 5.66645 10.3772 5.66645C7.3834 5.66645 5.51793 7.75274 5.51793 10.0831C5.51793 10.8882 5.77099 11.4545 6.168 11.8928C6.35141 12.0957 6.37579 12.176 6.30962 12.4081C6.26319 12.5763 6.15407 12.9864 6.10879 13.148C6.04263 13.3813 5.84064 13.4659 5.61544 13.3791C4.2352 12.8529 3.59325 11.4415 3.59325 9.85423C3.59325 7.23415 5.95788 4.09006 10.6477 4.09006C14.4169 4.09006 16.8976 6.6407 16.8976 9.37578C16.8976 12.9951 14.7454 15.6987 11.5705 15.6987C10.5061 15.6987 9.50309 15.1606 9.15948 14.5498C9.15948 14.5498 8.58603 16.6751 8.4653 17.0852C8.25635 17.7958 7.84657 18.5075 7.47162 19.0608C8.35966 19.306 9.29762 19.4395 10.2692 19.4395C15.7205 19.4395 20.1399 15.3092 20.1399 10.2144C20.1399 5.11856 15.7205 0.988281 10.2692 0.988281Z" fill="#59D9CC"/>
</svg>
