<svg width="21" height="19" viewBox="0 0 21 19" fill="none" xmlns="http://www.w3.org/2000/svg">
<path d="M10.269 0.0927734C4.81773 0.0927734 0.397247 4.12393 0.397247 9.09749C0.397247 12.7834 2.82805 15.9516 6.30708 17.344C6.27922 16.7161 6.30244 15.9601 6.47773 15.276C6.66811 14.5454 7.74769 10.3703 7.74769 10.3703C7.74769 10.3703 7.4331 9.79529 7.4331 8.94501C7.4331 7.61082 8.28167 6.61441 9.33688 6.61441C10.2342 6.61441 10.6684 7.22962 10.6684 7.9666C10.6684 8.78935 10.0926 10.0208 9.79657 11.1612C9.54931 12.1174 10.3213 12.8957 11.3544 12.8957C13.2245 12.8957 14.484 10.7049 14.484 8.10849C14.484 6.1358 13.0272 4.65866 10.377 4.65866C7.38318 4.65866 5.51771 6.69489 5.51771 8.96936C5.51771 9.75505 5.77078 10.3078 6.16778 10.7356C6.3512 10.9336 6.37557 11.0119 6.30941 11.2385C6.26297 11.4027 6.15385 11.8029 6.10858 11.9607C6.04241 12.1884 5.84043 12.2709 5.61522 12.1862C4.23498 11.6727 3.59304 10.2951 3.59304 8.74594C3.59304 6.18874 5.95767 3.12011 10.6475 3.12011C14.4167 3.12011 16.8974 5.60954 16.8974 8.27897C16.8974 11.8114 14.7452 14.4501 11.5703 14.4501C10.5058 14.4501 9.50288 13.9249 9.15927 13.3288C9.15927 13.3288 8.58581 15.4031 8.46509 15.8034C8.25613 16.4969 7.84636 17.1916 7.47141 17.7316C8.35945 17.9709 9.29741 18.1011 10.269 18.1011C15.7203 18.1011 20.1397 14.07 20.1397 9.09749C20.1397 4.12393 15.7203 0.0927734 10.269 0.0927734Z" fill="#59D9CC"/>
</svg>
