<svg width="233" height="49" viewBox="0 0 233 49" fill="none" xmlns="http://www.w3.org/2000/svg">
<g filter="url(#filter0_d_59_95)">
<path d="M4 6C4 2.68629 6.68629 0 10 0H222.139C225.453 0 228.139 2.68629 228.139 6V35C228.139 38.3137 225.453 41 222.139 41H10C6.68629 41 4 38.3137 4 35V6Z" fill="#385A95"/>
<path d="M4.5 6C4.5 2.96243 6.96243 0.5 10 0.5H222.139C225.176 0.5 227.639 2.96243 227.639 6V35C227.639 38.0376 225.176 40.5 222.139 40.5H10C6.96243 40.5 4.5 38.0376 4.5 35V6Z" stroke="black"/>
</g>
<defs>
<filter id="filter0_d_59_95" x="0" y="0" width="232.139" height="49" filterUnits="userSpaceOnUse" color-interpolation-filters="sRGB">
<feFlood flood-opacity="0" result="BackgroundImageFix"/>
<feColorMatrix in="SourceAlpha" type="matrix" values="0 0 0 0 0 0 0 0 0 0 0 0 0 0 0 0 0 0 127 0" result="hardAlpha"/>
<feOffset dy="4"/>
<feGaussianBlur stdDeviation="2"/>
<feComposite in2="hardAlpha" operator="out"/>
<feColorMatrix type="matrix" values="0 0 0 0 0 0 0 0 0 0 0 0 0 0 0 0 0 0 0.25 0"/>
<feBlend mode="normal" in2="BackgroundImageFix" result="effect1_dropShadow_59_95"/>
<feBlend mode="normal" in="SourceGraphic" in2="effect1_dropShadow_59_95" result="shape"/>
</filter>
</defs>
</svg>
