<svg width="27" height="25" viewBox="0 0 27 25" fill="none" xmlns="http://www.w3.org/2000/svg">
<path fill-rule="evenodd" clip-rule="evenodd" d="M21.6398 15.3283L18.8539 15.0382C18.1849 14.9682 17.5268 15.1783 17.0552 15.6085L15.0371 17.4493C11.9331 16.0086 9.38855 13.6976 7.80916 10.8562L9.83824 9.00539C10.3099 8.57519 10.5402 7.97491 10.4634 7.36463L10.1453 4.84345C10.0137 3.83299 9.08145 3.07263 7.96271 3.07263H6.06525C4.82586 3.07263 3.79487 4.01307 3.87164 5.14359C4.45295 13.6876 11.9441 20.5107 21.2998 21.041C22.5392 21.111 23.5702 20.1706 23.5702 19.0401V17.3092C23.5811 16.2988 22.7476 15.4484 21.6398 15.3283Z" fill="#30CDBD"/>
</svg>
