<svg width="27" height="25" viewBox="0 0 27 25" fill="none" xmlns="http://www.w3.org/2000/svg">
<path fill-rule="evenodd" clip-rule="evenodd" d="M7.8453 3.06281H18.8133C19.4165 3.06281 19.9101 3.51301 19.9101 4.06327V6.0642C19.9101 6.61445 19.4165 7.06466 18.8133 7.06466H7.8453C7.24206 7.06466 6.7485 6.61445 6.7485 6.0642V4.06327C6.7485 3.51301 7.24206 3.06281 7.8453 3.06281ZM5.6517 8.06513H21.0069C22.8276 8.06513 24.2973 9.40575 24.2973 11.0665V15.0684C24.2973 16.1689 23.3102 17.0693 22.1037 17.0693H19.9101V19.0702C19.9101 20.1708 18.923 21.0712 17.7165 21.0712H8.9421C7.73562 21.0712 6.7485 20.1708 6.7485 19.0702V17.0693H4.5549C3.34842 17.0693 2.3613 16.1689 2.3613 15.0684V11.0665C2.3613 9.40575 3.83101 8.06513 5.6517 8.06513ZM10.0389 19.0702H16.6197C17.2229 19.0702 17.7165 18.62 17.7165 18.0698V14.0679H8.9421V18.0698C8.9421 18.62 9.43566 19.0702 10.0389 19.0702ZM21.0069 12.067C20.4037 12.067 19.9101 11.6168 19.9101 11.0665C19.9101 10.5163 20.4037 10.0661 21.0069 10.0661C21.6101 10.0661 22.1037 10.5163 22.1037 11.0665C22.1037 11.6168 21.6101 12.067 21.0069 12.067Z" fill="#30CDBD"/>
</svg>
