<svg width="27" height="25" viewBox="0 0 27 25" fill="none" xmlns="http://www.w3.org/2000/svg">
<path fill-rule="evenodd" clip-rule="evenodd" d="M21.6399 15.3285L18.854 15.0384C18.185 14.9683 17.5269 15.1784 17.0552 15.6086L15.0371 17.4495C11.9332 16.0088 9.38861 13.6978 7.80922 10.8564L9.8383 9.00557C10.3099 8.57537 10.5403 7.97509 10.4635 7.36481L10.1454 4.84364C10.0138 3.83317 9.08151 3.07281 7.96277 3.07281H6.06531C4.82592 3.07281 3.79493 4.01325 3.8717 5.14378C4.45301 13.6877 11.9442 20.5109 21.2999 21.0412C22.5393 21.1112 23.5702 20.1708 23.5702 19.0402V17.3094C23.5812 16.299 22.7476 15.4486 21.6399 15.3285Z" fill="#30CDBD"/>
</svg>
