<svg width="27" height="25" viewBox="0 0 27 25" fill="none" xmlns="http://www.w3.org/2000/svg">
<path fill-rule="evenodd" clip-rule="evenodd" d="M6.03247 9.04695C6.03247 5.17516 9.46546 2.0437 13.7101 2.0437C17.9547 2.0437 21.3877 5.17516 21.3877 9.04695C21.3877 13.2189 16.5398 18.9716 14.5546 21.1626C14.1159 21.6428 13.3152 21.6428 12.8765 21.1626C10.8803 18.9716 6.03247 13.2189 6.03247 9.04695ZM10.9681 9.04695C10.9681 10.4276 12.1965 11.5481 13.7101 11.5481C15.2237 11.5481 16.4521 10.4276 16.4521 9.04695C16.4521 7.66631 15.2237 6.54579 13.7101 6.54579C12.1965 6.54579 10.9681 7.66631 10.9681 9.04695Z" fill="#30CDBD"/>
</svg>
