<svg width="27" height="25" viewBox="0 0 27 25" fill="none" xmlns="http://www.w3.org/2000/svg">
<path fill-rule="evenodd" clip-rule="evenodd" d="M7.84524 3.06262H18.8132C19.4165 3.06262 19.91 3.51283 19.91 4.06309V6.06402C19.91 6.61427 19.4165 7.06448 18.8132 7.06448H7.84524C7.242 7.06448 6.74844 6.61427 6.74844 6.06402V4.06309C6.74844 3.51283 7.242 3.06262 7.84524 3.06262ZM5.65164 8.06495H21.0068C22.8275 8.06495 24.2972 9.40557 24.2972 11.0663V15.0682C24.2972 16.1687 23.3101 17.0691 22.1036 17.0691H19.91V19.0701C19.91 20.1706 18.9229 21.071 17.7164 21.071H8.94204C7.73556 21.071 6.74844 20.1706 6.74844 19.0701V17.0691H4.55484C3.34836 17.0691 2.36124 16.1687 2.36124 15.0682V11.0663C2.36124 9.40557 3.83095 8.06495 5.65164 8.06495ZM10.0388 19.0701H16.6196C17.2229 19.0701 17.7164 18.6198 17.7164 18.0696V14.0677H8.94204V18.0696C8.94204 18.6198 9.4356 19.0701 10.0388 19.0701ZM21.0068 12.0668C20.4036 12.0668 19.91 11.6166 19.91 11.0663C19.91 10.5161 20.4036 10.0659 21.0068 10.0659C21.6101 10.0659 22.1036 10.5161 22.1036 11.0663C22.1036 11.6166 21.6101 12.0668 21.0068 12.0668Z" fill="#30CDBD"/>
</svg>
