<svg width="20" height="19" viewBox="0 0 20 19" fill="none" xmlns="http://www.w3.org/2000/svg">
<path fill-rule="evenodd" clip-rule="evenodd" d="M19.786 18.1011H16.0258C16.0258 10.0623 8.85661 3.52272 0.0438328 3.52272V0.0927734C10.9295 0.0927734 19.786 8.17145 19.786 18.1011ZM0.0441284 15.5285C0.0441284 14.1077 1.30692 12.9559 2.86444 12.9559C4.42196 12.9559 5.68476 14.1077 5.68476 15.5285C5.68476 16.9492 4.42196 18.1011 2.86444 18.1011C1.30692 18.1011 0.0441284 16.9492 0.0441284 15.5285ZM9.44516 18.1011H13.2053C13.2053 11.4811 7.30101 6.09534 0.0436401 6.09534V9.52593C5.22738 9.52593 9.44516 13.3726 9.44516 18.1011Z" fill="#59D9CC"/>
</svg>
