<svg width="20" height="20" viewBox="0 0 20 20" fill="none" xmlns="http://www.w3.org/2000/svg">
<path fill-rule="evenodd" clip-rule="evenodd" d="M19.7863 19.4395H16.0261C16.0261 11.203 8.85691 4.50257 0.044138 4.50257V0.988281C10.9298 0.988281 19.7863 9.26562 19.7863 19.4395ZM0.0444336 16.8036C0.0444336 15.3479 1.30723 14.1677 2.86475 14.1677C4.42227 14.1677 5.68506 15.3479 5.68506 16.8036C5.68506 18.2592 4.42227 19.4394 2.86475 19.4394C1.30723 19.4394 0.0444336 18.2592 0.0444336 16.8036ZM9.44546 19.4395H13.2056C13.2056 12.6567 7.30132 7.13845 0.0439453 7.13845V10.6534C5.22768 10.6534 9.44546 14.5947 9.44546 19.4395Z" fill="#59D9CC"/>
</svg>
