<svg width="16" height="20" viewBox="0 0 16 20" fill="none" xmlns="http://www.w3.org/2000/svg">
<path fill-rule="evenodd" clip-rule="evenodd" d="M0.0323944 7.0472C0.0323944 3.1754 3.46538 0.0439453 7.71 0.0439453C11.9546 0.0439453 15.3876 3.1754 15.3876 7.0472C15.3876 11.2191 10.5397 16.9718 8.55453 19.1628C8.11581 19.643 7.31515 19.643 6.87643 19.1628C4.88025 16.9718 0.0323944 11.2191 0.0323944 7.0472ZM4.968 7.0472C4.968 8.42784 6.19641 9.54836 7.71 9.54836C9.22358 9.54836 10.452 8.42784 10.452 7.0472C10.452 5.66656 9.22358 4.54604 7.71 4.54604C6.19641 4.54604 4.968 5.66656 4.968 7.0472Z" fill="#30CDBD"/>
</svg>
