<svg width="23" height="19" viewBox="0 0 23 19" fill="none" xmlns="http://www.w3.org/2000/svg">
<path fill-rule="evenodd" clip-rule="evenodd" d="M5.84524 0.0629883H16.8132C17.4165 0.0629883 17.91 0.513197 17.91 1.06345V3.06438C17.91 3.61464 17.4165 4.06485 16.8132 4.06485H5.84524C5.242 4.06485 4.74844 3.61464 4.74844 3.06438V1.06345C4.74844 0.513197 5.242 0.0629883 5.84524 0.0629883ZM3.65164 5.06531H19.0068C20.8275 5.06531 22.2972 6.40593 22.2972 8.06671V12.0686C22.2972 13.1691 21.3101 14.0695 20.1036 14.0695H17.91V16.0704C17.91 17.1709 16.9229 18.0714 15.7164 18.0714H6.94204C5.73556 18.0714 4.74844 17.1709 4.74844 16.0704V14.0695H2.55484C1.34836 14.0695 0.361237 13.1691 0.361237 12.0686V8.06671C0.361237 6.40593 1.83095 5.06531 3.65164 5.06531ZM8.03884 16.0704H14.6196C15.2229 16.0704 15.7164 15.6202 15.7164 15.07V11.0681H6.94204V15.07C6.94204 15.6202 7.4356 16.0704 8.03884 16.0704ZM19.0068 9.06717C18.4036 9.06717 17.91 8.61696 17.91 8.06671C17.91 7.51645 18.4036 7.06624 19.0068 7.06624C19.6101 7.06624 20.1036 7.51645 20.1036 8.06671C20.1036 8.61696 19.6101 9.06717 19.0068 9.06717Z" fill="#30CDBD"/>
</svg>
