<svg width="16" height="21" viewBox="0 0 16 21" fill="none" xmlns="http://www.w3.org/2000/svg">
<path fill-rule="evenodd" clip-rule="evenodd" d="M0.0322266 7.53179C0.0322266 3.56478 3.46521 0.356323 7.70983 0.356323C11.9544 0.356323 15.3874 3.56478 15.3874 7.53179C15.3874 11.8063 10.5396 17.7004 8.55437 19.9453C8.11565 20.4374 7.31498 20.4374 6.87626 19.9453C4.88008 17.7004 0.0322266 11.8063 0.0322266 7.53179ZM4.96783 7.53179C4.96783 8.94638 6.19624 10.0945 7.70983 10.0945C9.22341 10.0945 10.4518 8.94638 10.4518 7.53179C10.4518 6.1172 9.22341 4.96912 7.70983 4.96912C6.19624 4.96912 4.96783 6.1172 4.96783 7.53179Z" fill="#30CDBD"/>
</svg>
