<!-- <svg width="23" height="19" viewBox="0 0 23 19" fill="none" xmlns="http://www.w3.org/2000/svg">
<path fill-rule="evenodd" clip-rule="evenodd" d="M5.84484 0.384033H16.8128C17.4161 0.384033 17.9096 0.845313 17.9096 1.4091V3.45923C17.9096 4.02302 17.4161 4.4843 16.8128 4.4843H5.84484C5.2416 4.4843 4.74804 4.02302 4.74804 3.45923V1.4091C4.74804 0.845313 5.2416 0.384033 5.84484 0.384033ZM3.65124 5.50937H19.0064C20.8271 5.50937 22.2968 6.88295 22.2968 8.58456V12.6848C22.2968 13.8124 21.3097 14.735 20.1032 14.735H17.9096V16.7851C17.9096 17.9127 16.9225 18.8352 15.716 18.8352H6.94164C5.73516 18.8352 4.74804 17.9127 4.74804 16.7851V14.735H2.55444C1.34796 14.735 0.36084 13.8124 0.36084 12.6848V8.58456C0.36084 6.88295 1.83055 5.50937 3.65124 5.50937ZM8.03844 16.7851H14.6192C15.2225 16.7851 15.716 16.3238 15.716 15.76V11.6598H6.94164V15.76C6.94164 16.3238 7.4352 16.7851 8.03844 16.7851ZM19.0064 9.60963C18.4032 9.60963 17.9096 9.14835 17.9096 8.58456C17.9096 8.02078 18.4032 7.5595 19.0064 7.5595C19.6097 7.5595 20.1032 8.02078 20.1032 8.58456C20.1032 9.14835 19.6097 9.60963 19.0064 9.60963Z" fill="#30CDBD"/>
</svg> -->
<svg width="27" height="25" viewBox="0 0 27 25" fill="none" xmlns="http://www.w3.org/2000/svg">
<path fill-rule="evenodd" clip-rule="evenodd" d="M7.84484 3.38403H18.8128C19.4161 3.38403 19.9096 3.84531 19.9096 4.4091V6.45923C19.9096 7.02302 19.4161 7.4843 18.8128 7.4843H7.84484C7.2416 7.4843 6.74804 7.02302 6.74804 6.45923V4.4091C6.74804 3.84531 7.2416 3.38403 7.84484 3.38403ZM5.65124 8.50937H21.0064C22.8271 8.50937 24.2968 9.88295 24.2968 11.5846V15.6848C24.2968 16.8124 23.3097 17.735 22.1032 17.735H19.9096V19.7851C19.9096 20.9127 18.9225 21.8352 17.716 21.8352H8.94164C7.73516 21.8352 6.74804 20.9127 6.74804 19.7851V17.735H4.55444C3.34796 17.735 2.36084 16.8124 2.36084 15.6848V11.5846C2.36084 9.88295 3.83055 8.50937 5.65124 8.50937ZM10.0384 19.7851H16.6192C17.2225 19.7851 17.716 19.3238 17.716 18.76V14.6598H8.94164V18.76C8.94164 19.3238 9.4352 19.7851 10.0384 19.7851ZM21.0064 12.6096C20.4032 12.6096 19.9096 12.1483 19.9096 11.5846C19.9096 11.0208 20.4032 10.5595 21.0064 10.5595C21.6097 10.5595 22.1032 11.0208 22.1032 11.5846C22.1032 12.1483 21.6097 12.6096 21.0064 12.6096Z" fill="#30CDBD"/>
</svg>
