<svg width="45" height="39" viewBox="0 0 45 39" fill="none" xmlns="http://www.w3.org/2000/svg">
<g clip-path="url(#clip0_114_221)">
<path d="M34.4531 0H10.5469C4.722 0 0 4.0924 0 9.14062V29.8594C0 34.9076 4.722 39 10.5469 39H34.4531C40.278 39 45 34.9076 45 29.8594V9.14062C45 4.0924 40.278 0 34.4531 0Z" fill="url(#paint0_radial_114_221)"/>
<path d="M34.4531 0H10.5469C4.722 0 0 4.0924 0 9.14062V29.8594C0 34.9076 4.722 39 10.5469 39H34.4531C40.278 39 45 34.9076 45 29.8594V9.14062C45 4.0924 40.278 0 34.4531 0Z" fill="url(#paint1_radial_114_221)"/>
<path d="M23.0675 4.10522C18.2936 4.10522 17.6944 4.12335 15.8195 4.19724C13.9481 4.27158 12.6707 4.52828 11.5531 4.90503C10.3968 5.29412 9.41615 5.81467 8.43916 6.6617C7.46129 7.50858 6.86064 8.35851 6.41029 9.36017C5.97436 10.3291 5.67781 11.4366 5.59361 13.0577C5.50977 14.6828 5.48779 15.2022 5.48779 19.3398C5.48779 23.4773 5.50889 23.9949 5.59396 25.6198C5.6801 27.2417 5.97629 28.3488 6.41064 29.3174C6.85994 30.3195 7.46059 31.1694 8.43793 32.0161C9.41475 32.8636 10.3954 33.3854 11.5508 33.7745C12.6693 34.1512 13.9469 34.4079 15.8179 34.4823C17.693 34.5562 18.2917 34.5743 23.0654 34.5743C27.8398 34.5743 28.4371 34.5562 30.312 34.4823C32.1833 34.4079 33.4621 34.1512 34.5806 33.7745C35.7364 33.3854 36.7157 32.8636 37.6923 32.0161C38.6702 31.1694 39.2707 30.3195 39.7212 29.3178C40.1533 28.3488 40.45 27.2414 40.5379 25.6201C40.6221 23.9952 40.644 23.4773 40.644 19.3398C40.644 15.2022 40.6221 14.6831 40.5379 13.058C40.45 11.4362 40.1533 10.3292 39.7212 9.36063C39.2707 8.35851 38.6702 7.50858 37.6923 6.6617C36.7146 5.81437 35.7368 5.29381 34.5796 4.90518C33.459 4.52828 32.1809 4.27143 30.3095 4.19724C28.4345 4.12335 27.8375 4.10522 23.062 4.10522H23.0675ZM21.4906 6.85061C21.9587 6.85 22.4809 6.85061 23.0675 6.85061C27.761 6.85061 28.3172 6.86524 30.1706 6.93821C31.8845 7.00615 32.8147 7.25432 33.4344 7.46288C34.2547 7.73893 34.8396 8.06906 35.4545 8.60241C36.0697 9.13562 36.4504 9.64338 36.7698 10.3544C37.0105 10.8906 37.2972 11.6968 37.3752 13.1822C37.4594 14.7882 37.4777 15.2705 37.4777 19.3362C37.4777 23.402 37.4594 23.8845 37.3752 25.4903C37.2968 26.9757 37.0105 27.7819 36.7698 28.3183C36.4513 29.0293 36.0697 29.5355 35.4545 30.0684C34.8392 30.6016 34.2551 30.9316 33.4344 31.2078C32.8154 31.4173 31.8845 31.6648 30.1706 31.7328C28.3176 31.8057 27.761 31.8216 23.0675 31.8216C18.3738 31.8216 17.8174 31.8057 15.9645 31.7328C14.2507 31.6642 13.3204 31.416 12.7003 31.2075C11.8801 30.9313 11.294 30.6013 10.6788 30.0681C10.0636 29.5349 9.68281 29.0284 9.36342 28.3171C9.12277 27.7807 8.83607 26.9745 8.75803 25.4891C8.67383 23.8831 8.65695 23.4008 8.65695 19.3324C8.65695 15.2643 8.67383 14.7844 8.75803 13.1784C8.83643 11.693 9.12277 10.8868 9.36342 10.3498C9.68211 9.63881 10.0636 9.13105 10.679 8.59784C11.2942 8.06464 11.8801 7.73451 12.7004 7.45785C13.3201 7.24838 14.2507 7.00082 15.9645 6.93257C17.5861 6.86904 18.2145 6.85 21.4906 6.8468V6.85061ZM32.4507 9.38013C31.2862 9.38013 30.3413 10.1982 30.3413 11.2076C30.3413 12.2169 31.2862 13.0358 32.4507 13.0358C33.6153 13.0358 34.5601 12.2169 34.5601 11.2076C34.5601 10.1984 33.6153 9.37952 32.4507 9.37952V9.38013ZM23.0675 11.5161C18.0823 11.5161 14.0404 15.0191 14.0404 19.3398C14.0404 23.6604 18.0823 27.1617 23.0675 27.1617C28.0528 27.1617 32.0933 23.6604 32.0933 19.3398C32.0933 15.0193 28.0525 11.5161 23.0671 11.5161H23.0675ZM23.0675 14.2615C26.3035 14.2615 28.927 16.535 28.927 19.3398C28.927 22.1442 26.3035 24.418 23.0675 24.418C19.8314 24.418 17.2082 22.1442 17.2082 19.3398C17.2082 16.535 19.8314 14.2615 23.0675 14.2615Z" fill="white"/>
</g>
<defs>
<radialGradient id="paint0_radial_114_221" cx="0" cy="0" r="1" gradientUnits="userSpaceOnUse" gradientTransform="translate(11.9531 42.0038) rotate(-90) scale(38.6519 41.48)">
<stop stop-color="#FFDD55"/>
<stop offset="0.1" stop-color="#FFDD55"/>
<stop offset="0.5" stop-color="#FF543E"/>
<stop offset="1" stop-color="#C837AB"/>
</radialGradient>
<radialGradient id="paint1_radial_114_221" cx="0" cy="0" r="1" gradientUnits="userSpaceOnUse" gradientTransform="translate(-7.53768 2.80937) rotate(76.9951) scale(17.3875 81.6561)">
<stop stop-color="#3771C8"/>
<stop offset="0.128" stop-color="#3771C8"/>
<stop offset="1" stop-color="#6600FF" stop-opacity="0"/>
</radialGradient>
<clipPath id="clip0_114_221">
<rect width="45" height="39" fill="white"/>
</clipPath>
</defs>
</svg>
