<svg width="45" height="38" viewBox="0 0 45 38" fill="none" xmlns="http://www.w3.org/2000/svg">
<g clip-path="url(#clip0_60_90)">
<path d="M34.4531 0H10.5469C4.722 0 0 3.98746 0 8.90625V29.0938C0 34.0125 4.722 38 10.5469 38H34.4531C40.278 38 45 34.0125 45 29.0938V8.90625C45 3.98746 40.278 0 34.4531 0Z" fill="url(#paint0_radial_60_90)"/>
<path d="M34.4531 0H10.5469C4.722 0 0 3.98746 0 8.90625V29.0938C0 34.0125 4.722 38 10.5469 38H34.4531C40.278 38 45 34.0125 45 29.0938V8.90625C45 3.98746 40.278 0 34.4531 0Z" fill="url(#paint1_radial_60_90)"/>
<path d="M23.0675 4C18.2936 4 17.6944 4.01766 15.8195 4.08966C13.9481 4.16209 12.6707 4.41221 11.5531 4.7793C10.3968 5.15841 9.41615 5.66562 8.43916 6.49093C7.46129 7.31609 6.86064 8.14423 6.41029 9.1202C5.97436 10.0643 5.67781 11.1434 5.59361 12.7229C5.50977 14.3063 5.48779 14.8125 5.48779 18.8439C5.48779 22.8753 5.50889 23.3797 5.59396 24.9629C5.6801 26.5432 5.97629 27.6219 6.41064 28.5657C6.85994 29.5421 7.46059 30.3702 8.43793 31.1952C9.41475 32.021 10.3954 32.5294 11.5508 32.9085C12.6693 33.2756 13.9469 33.5257 15.8179 33.5981C17.693 33.6701 18.2917 33.6878 23.0654 33.6878C27.8398 33.6878 28.4371 33.6701 30.312 33.5981C32.1833 33.5257 33.4621 33.2756 34.5806 32.9085C35.7364 32.5294 36.7157 32.021 37.6923 31.1952C38.6702 30.3702 39.2707 29.5421 39.7212 28.5661C40.1533 27.6219 40.45 26.5429 40.5379 24.9632C40.6221 23.38 40.644 22.8753 40.644 18.8439C40.644 14.8125 40.6221 14.3066 40.5379 12.7232C40.45 11.143 40.1533 10.0644 39.7212 9.12065C39.2707 8.14423 38.6702 7.31609 37.6923 6.49093C36.7146 5.66532 35.7368 5.15811 34.5796 4.77945C33.459 4.41221 32.1809 4.16195 30.3095 4.08966C28.4345 4.01766 27.8375 4 23.062 4H23.0675ZM21.4906 6.67499C21.9587 6.6744 22.4809 6.67499 23.0675 6.67499C27.761 6.67499 28.3172 6.68924 30.1706 6.76034C31.8845 6.82655 32.8147 7.06835 33.4344 7.27156C34.2547 7.54053 34.8396 7.8622 35.4545 8.38188C36.0697 8.90141 36.4504 9.39615 36.7698 10.0889C37.0105 10.6114 37.2972 11.3969 37.3752 12.8442C37.4594 14.409 37.4777 14.879 37.4777 18.8405C37.4777 22.802 37.4594 23.2721 37.3752 24.8368C37.2968 26.284 37.0105 27.0696 36.7698 27.5922C36.4513 28.285 36.0697 28.7782 35.4545 29.2975C34.8392 29.817 34.2551 30.1385 33.4344 30.4076C32.8154 30.6117 31.8845 30.8529 30.1706 30.9191C28.3176 30.9902 27.761 31.0057 23.0675 31.0057C18.3738 31.0057 17.8174 30.9902 15.9645 30.9191C14.2507 30.8523 13.3204 30.6105 12.7003 30.4073C11.8801 30.1382 11.294 29.8167 10.6788 29.2972C10.0636 28.7776 9.68281 28.2841 9.36342 27.591C9.12277 27.0684 8.83607 26.2828 8.75803 24.8356C8.67383 23.2708 8.65695 22.8008 8.65695 18.8368C8.65695 14.8729 8.67383 14.4053 8.75803 12.8405C8.83643 11.3932 9.12277 10.6077 9.36342 10.0845C9.68211 9.3917 10.0636 8.89695 10.679 8.37742C11.2942 7.85789 11.8801 7.53623 12.7004 7.26666C13.3201 7.06256 14.2507 6.82135 15.9645 6.75485C17.5861 6.69295 18.2145 6.6744 21.4906 6.67128V6.67499ZM32.4507 9.13965C31.2862 9.13965 30.3413 9.93676 30.3413 10.9203C30.3413 11.9037 31.2862 12.7016 32.4507 12.7016C33.6153 12.7016 34.5601 11.9037 34.5601 10.9203C34.5601 9.93691 33.6153 9.13905 32.4507 9.13905V9.13965ZM23.0675 11.2209C18.0823 11.2209 14.0404 14.6341 14.0404 18.8439C14.0404 23.0537 18.0823 26.4653 23.0675 26.4653C28.0528 26.4653 32.0933 23.0537 32.0933 18.8439C32.0933 14.6342 28.0525 11.2209 23.0671 11.2209H23.0675ZM23.0675 13.8959C26.3035 13.8959 28.927 16.111 28.927 18.8439C28.927 21.5765 26.3035 23.7919 23.0675 23.7919C19.8314 23.7919 17.2082 21.5765 17.2082 18.8439C17.2082 16.111 19.8314 13.8959 23.0675 13.8959Z" fill="white"/>
</g>
<defs>
<radialGradient id="paint0_radial_60_90" cx="0" cy="0" r="1" gradientUnits="userSpaceOnUse" gradientTransform="translate(11.9531 40.9267) rotate(-90) scale(37.6608 41.48)">
<stop stop-color="#FFDD55"/>
<stop offset="0.1" stop-color="#FFDD55"/>
<stop offset="0.5" stop-color="#FF543E"/>
<stop offset="1" stop-color="#C837AB"/>
</radialGradient>
<radialGradient id="paint1_radial_60_90" cx="0" cy="0" r="1" gradientUnits="userSpaceOnUse" gradientTransform="translate(-7.53768 2.73734) rotate(76.6649) scale(16.9646 81.5461)">
<stop stop-color="#3771C8"/>
<stop offset="0.128" stop-color="#3771C8"/>
<stop offset="1" stop-color="#6600FF" stop-opacity="0"/>
</radialGradient>
<clipPath id="clip0_60_90">
<rect width="45" height="38" fill="white"/>
</clipPath>
</defs>
</svg>
