<svg width="20" height="16" viewBox="0 0 20 16" fill="none" xmlns="http://www.w3.org/2000/svg">
<path d="M19.9077 1.86994C19.1823 2.17127 18.4013 2.37505 17.582 2.4661C18.4186 1.99784 19.0606 1.25535 19.3631 0.370869C18.5797 0.80444 17.7141 1.11986 16.7894 1.28896C16.0524 0.552969 14.999 0.0933838 13.8333 0.0933838C11.598 0.0933838 9.78445 1.78973 9.78445 3.88171C9.78445 4.17871 9.81921 4.46703 9.88874 4.74452C6.52244 4.58626 3.53854 3.0796 1.53961 0.784929C1.19082 1.3464 0.991505 1.99784 0.991505 2.69156C0.991505 4.00528 1.70648 5.16508 2.79343 5.8447C2.1306 5.82627 1.50485 5.65393 0.9579 5.37211V5.41872C0.9579 7.25489 2.35425 8.78648 4.20832 9.13334C3.86879 9.22222 3.51073 9.26666 3.14107 9.26666C2.88034 9.26666 2.62541 9.2439 2.37858 9.19946C2.89425 10.7039 4.38909 11.7998 6.16205 11.8291C4.77613 12.8458 3.02867 13.4517 1.13172 13.4517C0.804938 13.4517 0.481634 13.4344 0.165283 13.3997C1.95794 14.4728 4.08781 15.1004 6.37411 15.1004C13.8252 15.1004 17.8983 9.32844 17.8983 4.32178C17.8983 4.15703 17.8949 3.99227 17.8879 3.83076C18.6794 3.29639 19.3665 2.62977 19.9077 1.86994Z" fill="#59D9CC"/>
</svg>
