<svg width="20" height="16" viewBox="0 0 20 16" fill="none" xmlns="http://www.w3.org/2000/svg">
<path d="M19.9074 1.85857C19.182 2.16731 18.401 2.3761 17.5817 2.46939C18.4184 1.98962 19.0604 1.22887 19.3628 0.322639C18.5795 0.766871 17.7138 1.09005 16.7891 1.2633C16.0521 0.509216 14.9988 0.0383301 13.833 0.0383301C11.5977 0.0383301 9.7842 1.77639 9.7842 3.91981C9.7842 4.22411 9.81897 4.51953 9.8885 4.80383C6.52219 4.64169 3.53829 3.09798 1.53937 0.746881C1.19057 1.32216 0.99126 1.98962 0.99126 2.70039C0.99126 4.04642 1.70624 5.23474 2.79319 5.93107C2.13036 5.91219 1.50461 5.73561 0.957656 5.44686V5.49462C0.957656 7.37594 2.354 8.94519 4.20808 9.30058C3.86855 9.39164 3.51048 9.43718 3.14083 9.43718C2.8801 9.43718 2.62516 9.41386 2.37834 9.36832C2.894 10.9098 4.38885 12.0326 6.16181 12.0626C4.77589 13.1043 3.02842 13.7251 1.13147 13.7251C0.804694 13.7251 0.48139 13.7074 0.165039 13.6718C1.9577 14.7713 4.08756 15.4143 6.37387 15.4143C13.8249 15.4143 17.8981 9.50048 17.8981 4.37071C17.8981 4.2019 17.8946 4.03309 17.8877 3.86761C18.6791 3.3201 19.3663 2.63709 19.9074 1.85857Z" fill="#59D9CC"/>
</svg>
