<svg width="20" height="16" viewBox="0 0 20 16" fill="none" xmlns="http://www.w3.org/2000/svg">
<path d="M19.9076 1.87031C19.1822 2.17164 18.4012 2.37542 17.5819 2.46647C18.4185 1.99821 19.0605 1.25572 19.363 0.371235C18.5796 0.804806 17.714 1.12023 16.7893 1.28932C16.0523 0.553335 14.9989 0.09375 13.8332 0.09375C11.5979 0.09375 9.78436 1.7901 9.78436 3.88208C9.78436 4.17907 9.81912 4.4674 9.88865 4.74488C6.52235 4.58663 3.53845 3.07997 1.53952 0.785296C1.19073 1.34677 0.991413 1.99821 0.991413 2.69192C0.991413 4.00564 1.70639 5.16545 2.79334 5.84507C2.13051 5.82664 1.50476 5.6543 0.957808 5.37248V5.41908C0.957808 7.25526 2.35416 8.78685 4.20823 9.1337C3.8687 9.22259 3.51064 9.26703 3.14098 9.26703C2.88025 9.26703 2.62532 9.24426 2.37849 9.19982C2.89416 10.7043 4.389 11.8002 6.16196 11.8294C4.77604 12.8462 3.02858 13.4521 1.13163 13.4521C0.804847 13.4521 0.481543 13.4347 0.165192 13.4C1.95785 14.4731 4.08772 15.1007 6.37402 15.1007C13.8251 15.1007 17.8982 9.32881 17.8982 4.32215C17.8982 4.15739 17.8948 3.99264 17.8878 3.83113C18.6793 3.29675 19.3664 2.63014 19.9076 1.87031Z" fill="#59D9CC"/>
</svg>
