<svg width="48" height="43" viewBox="0 0 48 43" fill="none" xmlns="http://www.w3.org/2000/svg">
<g filter="url(#filter0_d_59_93)">
<path fill-rule="evenodd" clip-rule="evenodd" d="M8.82733 5.09522C7.20514 6.99302 6.22222 9.58594 6.22222 12.2929C6.22222 18.3613 10.6274 23.4552 15.2788 27.1213C17.5817 28.9365 19.89 30.3574 21.625 31.3252C22.4912 31.8083 23.2116 32.1768 23.7126 32.4234C23.8124 32.4725 23.9036 32.5167 23.9853 32.5561C24.0692 32.5136 24.1629 32.4656 24.2659 32.4121C24.7681 32.1518 25.4897 31.7641 26.3574 31.2595C28.0951 30.249 30.4071 28.7763 32.7138 26.9253C37.3819 23.1795 41.7778 18.0866 41.7778 12.2929C41.7778 9.58634 40.795 6.99343 39.1729 5.09553C37.5561 3.20386 35.3482 2.04295 32.8542 2.04295C29.4067 2.04295 26.7327 4.10715 24.9973 7.35646L24 9.22403L23.0027 7.35646C21.2672 4.10695 18.5932 2.04295 15.1458 2.04295C12.652 2.04295 10.4441 3.20365 8.82733 5.09522ZM24 33.7087C23.518 34.629 23.5172 34.6287 23.5172 34.6287L23.5122 34.6265L23.4996 34.6208L23.4541 34.6003C23.415 34.5826 23.3586 34.5567 23.2859 34.5229C23.1404 34.4552 22.9301 34.3555 22.6641 34.2246C22.1322 33.9629 21.3768 33.5763 20.4722 33.0718C18.6656 32.064 16.2517 30.5791 13.8323 28.6723C9.03922 24.8945 4 19.2806 4 12.2929C4 9.1516 5.1347 6.10883 7.08002 3.83299C9.03067 1.55084 11.8401 0 15.1458 0C19.0387 0 21.999 2.00553 24 4.83546C26.0009 2.00567 28.9612 0 32.8542 0C36.1602 0 38.9697 1.55111 40.9202 3.83329C42.8654 6.10934 44 9.15211 44 12.2929C44 19.0168 38.9514 24.6318 34.1751 28.4644C31.7596 30.4027 29.3493 31.9369 27.5453 32.986C26.6422 33.5112 25.8881 33.9166 25.3574 34.1916C25.092 34.3292 24.8822 34.4345 24.7373 34.5059C24.665 34.5416 24.6088 34.5689 24.5699 34.5876L24.5249 34.6091L24.5123 34.615L24.5087 34.6169L24.5074 34.6174C24.5074 34.6174 24.5067 34.6178 24 33.7087ZM24 33.7087L24.5074 34.6174L24.0154 34.8492L23.5172 34.6287L24 33.7087Z" fill="#FF0000"/>
</g>
<defs>
<filter id="filter0_d_59_93" x="0" y="0" width="48" height="42.8491" filterUnits="userSpaceOnUse" color-interpolation-filters="sRGB">
<feFlood flood-opacity="0" result="BackgroundImageFix"/>
<feColorMatrix in="SourceAlpha" type="matrix" values="0 0 0 0 0 0 0 0 0 0 0 0 0 0 0 0 0 0 127 0" result="hardAlpha"/>
<feOffset dy="4"/>
<feGaussianBlur stdDeviation="2"/>
<feComposite in2="hardAlpha" operator="out"/>
<feColorMatrix type="matrix" values="0 0 0 0 0 0 0 0 0 0 0 0 0 0 0 0 0 0 0.25 0"/>
<feBlend mode="normal" in2="BackgroundImageFix" result="effect1_dropShadow_59_93"/>
<feBlend mode="normal" in="SourceGraphic" in2="effect1_dropShadow_59_93" result="shape"/>
</filter>
</defs>
</svg>
