<svg width="21" height="14" viewBox="0 0 21 14" fill="none" xmlns="http://www.w3.org/2000/svg">
<path fill-rule="evenodd" clip-rule="evenodd" d="M19.2187 1.05757C19.8104 1.63248 20.0035 2.93801 20.0035 2.93801C20.0035 2.93801 20.2009 4.47148 20.2009 6.00437V7.44193C20.2009 8.97541 20.0035 10.5083 20.0035 10.5083C20.0035 10.5083 19.8104 11.8138 19.2187 12.3887C18.5423 13.0688 17.7922 13.1391 17.3683 13.1788C17.3217 13.1832 17.279 13.1872 17.2408 13.1916C14.4781 13.3834 10.3297 13.3893 10.3297 13.3893C10.3297 13.3893 5.19667 13.3443 3.61728 13.1987C3.54245 13.1853 3.45174 13.1748 3.34901 13.163C2.84872 13.1054 2.0635 13.015 1.44006 12.3887C0.848409 11.8138 0.65592 10.5083 0.65592 10.5083C0.65592 10.5083 0.458496 8.97541 0.458496 7.44193V6.00437C0.458496 4.47148 0.65592 2.93801 0.65592 2.93801C0.65592 2.93801 0.848409 1.63248 1.44006 1.05757C2.11801 0.376516 2.86876 0.307007 3.29275 0.267751C3.33872 0.263495 3.38085 0.259595 3.41862 0.255309C6.18133 0.0634766 10.3254 0.0634766 10.3254 0.0634766H10.334C10.334 0.0634766 14.4781 0.0634766 17.2408 0.255309C17.2785 0.259601 17.3207 0.263507 17.3667 0.267771C17.7904 0.307029 18.5414 0.376626 19.2187 1.05757ZM8.29055 3.86043L8.29117 9.18379L13.6247 6.53128L8.29055 3.86043Z" fill="#59D9CC"/>
</svg>
