<svg width="21" height="14" viewBox="0 0 21 14" fill="none" xmlns="http://www.w3.org/2000/svg">
<path fill-rule="evenodd" clip-rule="evenodd" d="M19.2185 1.06448C19.8101 1.62558 20.0032 2.89978 20.0032 2.89978C20.0032 2.89978 20.2007 4.39645 20.2007 5.89255V7.29561C20.2007 8.79228 20.0032 10.2884 20.0032 10.2884C20.0032 10.2884 19.8101 11.5626 19.2185 12.1237C18.542 12.7875 17.792 12.856 17.368 12.8948C17.3214 12.8991 17.2787 12.903 17.2405 12.9073C14.4778 13.0945 10.3295 13.1003 10.3295 13.1003C10.3295 13.1003 5.19643 13.0564 3.61704 12.9142C3.54221 12.9011 3.45149 12.8909 3.34877 12.8794C2.84848 12.8232 2.06325 12.735 1.43982 12.1237C0.848165 11.5626 0.655676 10.2884 0.655676 10.2884C0.655676 10.2884 0.458252 8.79228 0.458252 7.29561V5.89255C0.458252 4.39645 0.655676 2.89978 0.655676 2.89978C0.655676 2.89978 0.848165 1.62558 1.43982 1.06448C2.11776 0.399764 2.86852 0.331924 3.29251 0.293611C3.33847 0.289457 3.3806 0.28565 3.41838 0.281467C6.18108 0.0942383 10.3251 0.0942383 10.3251 0.0942383H10.3338C10.3338 0.0942383 14.4778 0.0942383 17.2405 0.281467C17.2783 0.285656 17.3205 0.289468 17.3665 0.293629C17.7901 0.331946 18.5412 0.399873 19.2185 1.06448ZM8.29031 3.80006L8.29093 8.99566L13.6245 6.40682L8.29031 3.80006Z" fill="#59D9CC"/>
</svg>
