<svg width="27" height="25" viewBox="0 0 27 25" fill="none" xmlns="http://www.w3.org/2000/svg">
<path fill-rule="evenodd" clip-rule="evenodd" d="M22.2187 7.06399C22.8104 7.6251 23.0035 8.89929 23.0035 8.89929C23.0035 8.89929 23.2009 10.396 23.2009 11.8921V13.2951C23.2009 14.7918 23.0035 16.2879 23.0035 16.2879C23.0035 16.2879 22.8104 17.5621 22.2187 18.1232C21.5423 18.787 20.7922 18.8556 20.3683 18.8943C20.3217 18.8986 20.279 18.9025 20.2408 18.9068C17.4781 19.094 13.3297 19.0998 13.3297 19.0998C13.3297 19.0998 8.19667 19.0559 6.61728 18.9137C6.54245 18.9006 6.45174 18.8904 6.34901 18.8789C5.84873 18.8227 5.0635 18.7345 4.44006 18.1232C3.84841 17.5621 3.65592 16.2879 3.65592 16.2879C3.65592 16.2879 3.4585 14.7918 3.4585 13.2951V11.8921C3.4585 10.396 3.65592 8.89929 3.65592 8.89929C3.65592 8.89929 3.84841 7.6251 4.44006 7.06399C5.11801 6.39928 5.86876 6.33144 6.29275 6.29312C6.33872 6.28897 6.38085 6.28516 6.41862 6.28098C9.18133 6.09375 13.3254 6.09375 13.3254 6.09375H13.334C13.334 6.09375 17.4781 6.09375 20.2408 6.28098C20.2785 6.28517 20.3207 6.28898 20.3667 6.29314C20.7904 6.33146 21.5414 6.39938 22.2187 7.06399ZM11.2906 9.79957L11.2912 14.9952L16.6247 12.4063L11.2906 9.79957Z" fill="#59D9CC"/>
</svg>
