<svg width="27" height="25" viewBox="0 0 27 25" fill="none" xmlns="http://www.w3.org/2000/svg">
<path fill-rule="evenodd" clip-rule="evenodd" d="M22.2185 7.06405C22.8102 7.62516 23.0033 8.89935 23.0033 8.89935C23.0033 8.89935 23.2007 10.396 23.2007 11.8921V13.2952C23.2007 14.7919 23.0033 16.288 23.0033 16.288C23.0033 16.288 22.8102 17.5621 22.2185 18.1233C21.5421 18.787 20.7921 18.8556 20.3681 18.8944C20.3215 18.8986 20.2788 18.9025 20.2406 18.9068C17.4779 19.0941 13.3295 19.0999 13.3295 19.0999C13.3295 19.0999 8.19649 19.0559 6.6171 18.9138C6.54227 18.9007 6.45156 18.8905 6.34883 18.879C5.84854 18.8227 5.06331 18.7345 4.43988 18.1233C3.84823 17.5621 3.65574 16.288 3.65574 16.288C3.65574 16.288 3.45831 14.7919 3.45831 13.2952V11.8921C3.45831 10.396 3.65574 8.89935 3.65574 8.89935C3.65574 8.89935 3.84823 7.62516 4.43988 7.06405C5.11782 6.39934 5.86858 6.3315 6.29257 6.29318C6.33854 6.28903 6.38066 6.28522 6.41844 6.28104C9.18114 6.09381 13.3252 6.09381 13.3252 6.09381H13.3338C13.3338 6.09381 17.4779 6.09381 20.2406 6.28104C20.2784 6.28523 20.3205 6.28904 20.3665 6.2932C20.7902 6.33152 21.5413 6.39945 22.2185 7.06405ZM11.2904 9.79964L11.291 14.9952L16.6245 12.4064L11.2904 9.79964Z" fill="#59D9CC"/>
</svg>
