<?xml version="1.0" encoding="utf-8"?>
<!-- Generator: Adobe Illustrator 27.5.0, SVG Export Plug-In . SVG Version: 6.00 Build 0)  -->
<svg version="1.1" xmlns="http://www.w3.org/2000/svg" xmlns:xlink="http://www.w3.org/1999/xlink" x="0px" y="0px"
	 viewBox="0 0 750 500" style="enable-background:new 0 0 750 500;" xml:space="preserve">
<g id="BACKGROUND_1_">
	<g>
		<rect style="fill:#FFFFFF;" width="750" height="500"/>
		<path style="fill:#E2F6FE;" d="M525.56,62.53C395.48,99.79,359.6,67.9,316.51,47.3C246.47,13.82,157.2,30.78,98.79,82.28
			s-84.32,137.83-64.1,213.53s85.59,137.03,161.67,151.71c91.86,17.72,186.58,32.11,278.45,14.4
			c91.86-17.71,180.31-71.3,217.6-160.5C749,166.04,661.58,23.57,525.56,62.53z"/>
	</g>
</g>
<g id="OBJECTS_1_">
	<g>
		<defs>
			<rect id="SVGID_1_" width="750" height="500"/>
		</defs>
		<clipPath id="SVGID_00000112622278191401443140000013578845477257916602_">
			<use xlink:href="#SVGID_1_"  style="overflow:visible;"/>
		</clipPath>
		<g style="clip-path:url(#SVGID_00000112622278191401443140000013578845477257916602_);">
			<g>
				<g>
					<path style="fill:#6BC9ED;" d="M278.78,233.77c-3.66,0.78-7.96,1.23-10.73-2.41c-1.5-1.95-2.59-5.04-3.13-8.4
						c-0.45-2.78-0.51-5.63-0.11-8.13c0.55-5.25,2.89-8.01,6.53-11.35c3.62-3.49,8.32-7.65,11.21-13.25
						c2.59-4.93,3.44-10.85,2.64-15.81l-0.52-2c-1.44-5.28-5.36-8.68-10.26-9.45c-1.63-0.26-3.41-0.19-5.14,0.18
						c-3.46,0.73-6.74,2.64-9.08,5.4c-2.83,3.47-4,8.55-3.4,12.35l0.45,1.57c0.99,3.72,4.23,5.3,6.89,7c1.6,1.32,3.18,2.5,3.46,4.25
						c0.14,0.87,0.09,1.79-0.52,2.98c-1.87,3.27-6.86,8.1-12.44,9.28l-0.58,0.12c-5.82,0.93-11.86-2.02-15.6-9.23
						c-1.4-2.57-2.51-5.81-3.05-9.17c-0.96-5.99-0.26-12.78,2.8-18.57c4.89-9.19,16.09-16.25,27.52-19.42l2.5-0.53
						c10.58-2.24,21.07-1.3,28.31,1.7c7.67,3.21,11.54,8.73,13.41,15.43l1.18,4.89c0.87,5.41,0.62,11.35-0.89,16.8
						c-1.86,7.04-5.63,13.28-10.27,17.88c-4.63,4.6-10.12,7.58-12.28,11.51c-1.96,3.89-0.78,8.77-1.49,11.79
						C285.46,232.05,282.43,232.99,278.78,233.77z M282.09,261.91c7.79-2.25,13.16-9.74,12.15-16.02c-0.56-3.5-2.57-6.1-5.39-7.61
						c-3.69-1.94-6.36-1.22-11.4-0.45c-2.89,0.61-5.89,1.7-8.18,3.55c-3.69,3.04-5.24,7-4.69,11.71c0.51,3.21,2.61,6.4,5.66,8.02
						c2.85,1.66,7.05,1.83,10.52,1.09L282.09,261.91z"/>
				</g>
				<g>
					<path style="fill:#6BC9ED;" d="M496.98,180.79c-2.97,0.59-6.46,0.89-8.74-2.25c-1.24-1.68-2.14-4.33-2.6-7.2
						c-0.38-2.37-0.45-4.8-0.15-6.92c0.41-4.45,2.3-6.75,5.23-9.52c2.92-2.89,6.71-6.34,9.02-11.04c2.07-4.14,2.72-9.15,2.04-13.39
						l-0.44-1.71c-1.21-4.52-4.42-7.48-8.41-8.23c-1.33-0.25-2.77-0.22-4.18,0.05c-2.81,0.56-5.46,2.11-7.35,4.41
						c-2.27,2.89-3.2,7.19-2.68,10.43l0.38,1.34c0.83,3.18,3.47,4.59,5.65,6.08c1.31,1.15,2.6,2.18,2.85,3.68
						c0.12,0.75,0.09,1.53-0.4,2.52c-1.5,2.74-5.52,6.75-10.05,7.65l-0.47,0.09c-4.72,0.68-9.66-1.95-12.75-8.15
						c-1.16-2.21-2.09-4.98-2.55-7.85c-0.82-5.11-0.3-10.87,2.14-15.72c3.91-7.71,12.97-13.49,22.24-15.97l2.03-0.4
						c8.59-1.7,17.12-0.69,23.03,2c6.26,2.87,9.44,7.64,11.01,13.37l1,4.17c0.74,4.61,0.58,9.65-0.61,14.26
						c-1.46,5.95-4.49,11.17-8.22,15c-3.74,3.82-8.18,6.25-9.9,9.55c-1.57,3.26-0.58,7.44-1.13,9.99
						C502.4,179.46,499.94,180.21,496.98,180.79z M499.86,204.77c6.32-1.76,10.63-8.02,9.77-13.38c-0.48-2.99-2.13-5.23-4.44-6.58
						c-3.01-1.72-5.18-1.16-9.28-0.61c-2.34,0.47-4.78,1.33-6.63,2.86c-2.98,2.51-4.22,5.85-3.73,9.86
						c0.44,2.74,2.17,5.49,4.66,6.92c2.33,1.47,5.75,1.69,8.56,1.13L499.86,204.77z"/>
				</g>
				<g>
					<path style="fill:#6BC9ED;" d="M618.14,101.65c-2.39-0.71-5.07-1.82-5.53-4.96c-0.26-1.69,0.09-3.95,0.85-6.19
						c0.63-1.86,1.51-3.64,2.54-5.05c2-3.06,4.26-4,7.47-4.88c3.24-0.98,7.33-2.02,10.82-4.54c3.1-2.2,5.49-5.58,6.61-8.9l0.34-1.4
						c0.85-3.72-0.37-7.09-3-9.16c-0.87-0.69-1.94-1.22-3.08-1.56c-2.27-0.67-4.8-0.56-7.06,0.39c-2.77,1.22-5.09,3.98-5.94,6.51
						l-0.24,1.11c-0.61,2.61,0.78,4.64,1.8,6.55c0.52,1.33,1.07,2.57,0.67,3.74c-0.2,0.58-0.52,1.13-1.26,1.67
						c-2.14,1.41-6.62,2.77-10.27,1.69l-0.38-0.11c-3.71-1.31-6.31-5.09-6.2-10.75c0-2.04,0.38-4.4,1.14-6.64
						c1.35-4,3.94-7.97,7.58-10.54c5.81-4.08,14.64-4.8,22.37-3.05l1.64,0.48c6.93,2.05,12.78,6.03,16.07,10.23
						c3.48,4.47,3.98,9.13,2.93,13.86l-0.87,3.4c-1.22,3.61-3.27,7.2-5.9,10.07c-3.34,3.74-7.56,6.36-11.75,7.7
						c-4.19,1.34-8.37,1.39-10.89,3.12c-2.4,1.76-3.27,5.16-4.65,6.79C622.62,102.76,620.53,102.36,618.14,101.65z M611.08,120.08
						c5.29,1.14,10.84-1.74,12.26-5.94c0.79-2.34,0.45-4.59-0.73-6.45c-1.55-2.39-3.34-2.81-6.55-3.98
						c-1.89-0.56-4.01-0.86-5.94-0.47c-3.14,0.68-5.32,2.62-6.5,5.7c-0.73,2.15-0.51,4.79,0.75,6.78c1.14,1.95,3.56,3.41,5.82,4.08
						L611.08,120.08z"/>
				</g>
				<g>
					<path style="fill:#6BC9ED;" d="M164.72,87.39c-1.9,0.5-4.15,0.85-5.74-1.07c-0.86-1.03-1.55-2.69-1.96-4.51
						c-0.34-1.5-0.48-3.06-0.36-4.43c0.1-2.88,1.23-4.43,3.02-6.34c1.78-1.98,4.1-4.36,5.41-7.47c1.18-2.75,1.41-5.99,0.81-8.68
						l-0.35-1.08c-0.95-2.85-3.15-4.62-5.76-4.93c-0.87-0.11-1.8-0.03-2.7,0.21c-1.8,0.48-3.45,1.59-4.59,3.15
						c-1.36,1.95-1.79,4.75-1.33,6.81l0.3,0.84c0.66,2,2.42,2.8,3.89,3.66c0.89,0.69,1.77,1.29,1.98,2.24
						c0.11,0.47,0.11,0.98-0.16,1.63c-0.86,1.82-3.31,4.57-6.21,5.34l-0.3,0.08c-3.03,0.64-6.32-0.84-8.56-4.69
						c-0.84-1.37-1.54-3.11-1.95-4.93c-0.73-3.24-0.61-6.96,0.78-10.19c2.24-5.12,7.88-9.22,13.78-11.2l1.3-0.34
						c5.49-1.46,11.06-1.17,14.98,0.3c4.16,1.58,6.41,4.51,7.64,8.12l0.8,2.64c0.66,2.93,0.75,6.17,0.15,9.18
						c-0.72,3.88-2.48,7.37-4.75,9.98c-2.27,2.61-5.05,4.36-6.04,6.55c-0.89,2.16-0.09,4.8-0.35,6.46
						C168.18,86.31,166.62,86.89,164.72,87.39z M167.51,102.67c4.02-1.4,6.57-5.6,5.81-9c-0.42-1.9-1.58-3.27-3.13-4.03
						c-2.02-0.98-3.4-0.52-6.03,0.01c-1.5,0.4-3.04,1.06-4.18,2.12c-1.83,1.74-2.5,3.93-2.04,6.49c0.39,1.74,1.62,3.43,3.28,4.25
						c1.56,0.84,3.79,0.84,5.58,0.36L167.51,102.67z"/>
				</g>
				<g>
					<path style="fill:#6BC9ED;" d="M366.46,108.05c-1.66,0.44-3.61,0.77-4.88-0.67c-0.69-0.77-1.2-2.04-1.46-3.43
						c-0.22-1.15-0.26-2.35-0.09-3.42c0.23-2.22,1.28-3.46,2.92-4.98c1.63-1.58,3.75-3.48,5.03-5.92c1.16-2.16,1.51-4.67,1.13-6.73
						l-0.25-0.83c-0.68-2.18-2.48-3.48-4.7-3.65c-0.74-0.06-1.55,0.03-2.33,0.24c-1.57,0.42-3.05,1.32-4.1,2.56
						c-1.27,1.55-1.78,3.72-1.49,5.3l0.21,0.64c0.47,1.53,1.94,2.09,3.16,2.72c0.73,0.51,1.46,0.95,1.59,1.68
						c0.07,0.36,0.05,0.75-0.22,1.27c-0.83,1.43-3.08,3.62-5.61,4.3l-0.26,0.07c-2.64,0.58-5.4-0.47-7.13-3.39
						c-0.65-1.04-1.17-2.36-1.43-3.76c-0.46-2.49-0.18-5.37,1.19-7.9c2.18-4.02,7.24-7.34,12.41-9.03l1.13-0.3
						c4.8-1.28,9.57-1.21,12.87-0.18c3.5,1.11,5.28,3.31,6.16,6.07l0.56,2.02c0.42,2.25,0.33,4.75-0.33,7.09
						c-0.81,3.02-2.5,5.76-4.58,7.84c-2.08,2.08-4.56,3.51-5.53,5.23c-0.87,1.7-0.32,3.71-0.62,5.01
						C369.49,107.12,368.11,107.61,366.46,108.05z M368.09,119.78c3.53-1.19,5.93-4.51,5.45-7.12c-0.27-1.46-1.19-2.48-2.49-3.03
						c-1.69-0.7-2.89-0.31-5.18,0.17c-1.31,0.35-2.67,0.9-3.7,1.75c-1.66,1.4-2.35,3.11-2.08,5.07c0.25,1.34,1.22,2.61,2.61,3.19
						c1.3,0.61,3.21,0.54,4.78,0.13L368.09,119.78z"/>
				</g>
				<g>
					<path style="fill:#6BC9ED;" d="M67.3,217.25c-1.56,0.72-3.42,1.39-4.93,0.19c-0.82-0.64-1.54-1.8-2.04-3.13
						c-0.41-1.1-0.66-2.27-0.68-3.35c-0.16-2.23,0.66-3.63,2-5.41c1.33-1.84,3.08-4.08,3.92-6.71c0.76-2.32,0.67-4.86-0.06-6.83
						l-0.39-0.77c-1.05-2.02-3.05-3-5.27-2.78c-0.74,0.07-1.52,0.3-2.26,0.64c-1.47,0.69-2.77,1.83-3.59,3.23
						c-0.98,1.75-1.1,3.98-0.54,5.48l0.32,0.6c0.73,1.43,2.28,1.72,3.59,2.13c0.81,0.37,1.6,0.68,1.86,1.38
						c0.13,0.35,0.18,0.73,0,1.29c-0.57,1.56-2.4,4.1-4.77,5.21l-0.25,0.11c-2.5,1.03-5.4,0.47-7.61-2.09
						c-0.82-0.91-1.56-2.12-2.06-3.45c-0.89-2.37-1.11-5.25-0.21-7.98c1.45-4.34,5.85-8.49,10.65-11.06l1.06-0.49
						c4.5-2.09,9.21-2.86,12.64-2.42c3.64,0.48,5.78,2.33,7.12,4.9l0.9,1.89c0.8,2.14,1.16,4.62,0.91,7.04
						c-0.27,3.11-1.46,6.11-3.14,8.52c-1.69,2.41-3.88,4.25-4.53,6.11c-0.57,1.82,0.34,3.71,0.26,5.04
						C70.12,215.8,68.85,216.53,67.3,217.25z M70.95,228.51c3.27-1.79,5.06-5.48,4.12-7.96c-0.52-1.39-1.61-2.24-2.98-2.55
						c-1.78-0.39-2.9,0.2-5.07,1.07c-1.23,0.57-2.47,1.35-3.34,2.37c-1.39,1.66-1.77,3.47-1.16,5.36c0.48,1.27,1.65,2.35,3.12,2.69
						c1.39,0.37,3.26-0.02,4.73-0.71L70.95,228.51z"/>
				</g>
				<g>
					<path style="fill:#6BC9ED;" d="M676.63,252.06c-1.67-0.37-3.56-0.98-4.02-2.85c-0.26-1-0.12-2.36,0.29-3.72
						c0.34-1.12,0.86-2.2,1.5-3.07c1.23-1.87,2.73-2.48,4.89-3.07c2.18-0.65,4.93-1.36,7.2-2.93c2.02-1.38,3.5-3.44,4.11-5.45
						l0.16-0.85c0.4-2.24-0.59-4.23-2.48-5.41c-0.63-0.39-1.39-0.69-2.18-0.87c-1.59-0.36-3.32-0.24-4.82,0.37
						c-1.84,0.79-3.3,2.48-3.77,4.01l-0.11,0.67c-0.29,1.57,0.76,2.76,1.54,3.88c0.42,0.79,0.85,1.52,0.64,2.22
						c-0.11,0.35-0.3,0.69-0.78,1.02c-1.4,0.88-4.41,1.79-6.96,1.22l-0.26-0.06c-2.61-0.71-4.57-2.91-4.75-6.3
						c-0.1-1.22,0.06-2.64,0.47-3.99c0.74-2.42,2.32-4.84,4.7-6.45c3.79-2.55,9.81-3.16,15.18-2.27l1.14,0.26
						c4.84,1.08,9.04,3.35,11.49,5.79c2.59,2.6,3.16,5.37,2.66,8.23l-0.44,2.05c-0.67,2.18-1.9,4.37-3.57,6.14
						c-2.11,2.3-4.88,3.95-7.69,4.84c-2.81,0.88-5.67,1-7.32,2.08c-1.56,1.1-2,3.15-2.87,4.15
						C679.75,252.64,678.3,252.44,676.63,252.06z M672.66,263.22c3.68,0.57,7.35-1.26,8.12-3.79c0.43-1.42,0.09-2.75-0.8-3.84
						c-1.17-1.4-2.42-1.61-4.68-2.24c-1.32-0.3-2.79-0.43-4.09-0.16c-2.12,0.47-3.52,1.67-4.19,3.54c-0.4,1.3-0.13,2.87,0.84,4.04
						c0.87,1.14,2.6,1.97,4.18,2.32L672.66,263.22z"/>
				</g>
			</g>
			<g>
				<g>
					<path style="fill:none;stroke:#5D9AD5;stroke-miterlimit:10;" d="M302.64,539.36c7.1-50.74-11.71-104.4-48.78-139.16"/>
					<g>
						<path style="fill:#5D9AD5;" d="M259.02,405.29c-4.69-16.6-18.74-30.09-35.37-33.96C228.12,387.6,241.66,400.94,259.02,405.29z
							"/>
						<path style="fill:#5D9AD5;" d="M270.69,417.8c-5.23-6.86-7.3-15.8-7.16-24.48c0.15-8.68,2.35-17.19,4.95-25.47
							C274.49,383.66,275.75,401.28,270.69,417.8z"/>
						<path style="fill:#5D9AD5;" d="M284.66,440.01c-5.24-16.8-0.76-36.35,11.26-49.16C297.9,407.4,294.24,424.59,284.66,440.01z"
							/>
						<path style="fill:#5D9AD5;" d="M294.56,462.56c0.66-19.52,11.49-38.42,27.93-48.71C321.69,434.82,310.47,455.15,294.56,462.56
							z"/>
						<path style="fill:#5D9AD5;" d="M302.18,489.61c3.92-20.15,19.71-37.48,39.25-43.05C334.82,465.33,320.82,481.35,302.18,489.61
							z"/>
						<path style="fill:#5D9AD5;" d="M304,518.8c8.81-16.92,27.77-27.89,46.62-26.98C339,506.26,322.87,516.94,304,518.8z"/>
						<path style="fill:#5D9AD5;" d="M264.29,411.31c-6.88-3.47-14.81-4.46-22.49-3.81c-7.67,0.65-15.14,2.86-22.4,5.5
							C232.93,421.39,251.37,420.77,264.29,411.31z"/>
						<path style="fill:#5D9AD5;" d="M279.41,431.92c-7.38-5.59-17.13-6.87-26.11-5.02s-17.3,6.57-24.89,12.15
							C244.34,444.07,262.14,442.33,279.41,431.92z"/>
						<path style="fill:#5D9AD5;" d="M290.98,453.49c-18.99-3.32-39.05-0.63-55.53,7.46c9.11,4.14,19.64,5.72,29.6,4.45
							C275.01,464.12,284.33,459.99,290.98,453.49z"/>
						<path style="fill:#5D9AD5;" d="M299.16,480.05c-19.02-6.68-41.09-5.3-58.45,3.65C258.15,492.26,280.56,491.37,299.16,480.05z"
							/>
						<path style="fill:#5D9AD5;" d="M303.16,504c-17.02-8.85-38.49-2.72-53.02,15.14C266.68,525.53,286.16,519.73,303.16,504z"/>
					</g>
				</g>
				<g>
					<path style="fill:none;stroke:#5D9AD5;stroke-miterlimit:10;" d="M144.77,518.87c-9.54-43.84-41.53-82.17-82.96-99.41"/>
					<g>
						<path style="fill:#5D9AD5;" d="M67.66,422.07c-8.95-12.2-24.76-18.99-39.77-17.09C36.56,416.97,51.89,423.79,67.66,422.07z"/>
						<path style="fill:#5D9AD5;" d="M81.17,428.78c-6.44-4.04-10.88-10.75-13.41-17.92c-2.52-7.17-3.28-14.84-3.63-22.43
							C73.94,399.57,80.36,413.66,81.17,428.78z"/>
						<path style="fill:#5D9AD5;" d="M99.56,442.75c-9.47-12.2-11.7-29.63-5.59-43.82C100.65,411.92,102.84,427.16,99.56,442.75z"/>
						<path style="fill:#5D9AD5;" d="M114.66,458.25c-5.4-16.23-2.13-35.07,8.4-48.54C128.79,427.17,125.64,447.31,114.66,458.25z"
							/>
						<path style="fill:#5D9AD5;" d="M129.23,478.14c-2.88-17.74,4.99-36.8,19.55-47.35C149,448.23,142.23,465.66,129.23,478.14z"/>
						<path style="fill:#5D9AD5;" d="M139.64,501.56c2.18-16.59,14.61-31.39,30.57-36.4C164.94,480.57,154.77,494.26,139.64,501.56z
							"/>
						<path style="fill:#5D9AD5;" d="M73.88,425.4c-6.78-0.75-13.68,0.86-19.87,3.74c-6.19,2.88-11.73,6.97-16.96,11.36
							C50.85,443.25,66.01,437.11,73.88,425.4z"/>
						<path style="fill:#5D9AD5;" d="M92.72,437.71c-7.84-2.33-16.34-0.41-23.25,3.85s-12.39,10.68-17.01,17.58
							C67.25,458.4,81.53,451.53,92.72,437.71z"/>
						<path style="fill:#5D9AD5;" d="M108.92,451.89c-16.82,3.07-32.68,11.41-43.93,23.09c8.84,0.62,18.09-1.3,25.98-5.39
							C98.87,465.5,105.37,459.26,108.92,451.89z"/>
						<path style="fill:#5D9AD5;" d="M123.81,471.21c-17.86,0.32-35.8,8.2-47.52,20.85C93.41,493.77,111.79,486.19,123.81,471.21z"
							/>
						<path style="fill:#5D9AD5;" d="M134.43,489.66c-16.85-2.07-32.85,9.52-39.5,28.63C110.64,518.49,125.08,507.77,134.43,489.66z
							"/>
					</g>
				</g>
				<g>
					<path style="fill:none;stroke:#5D9AD5;stroke-miterlimit:10;" d="M633.68,514.47c5.29-44.56,33.46-85.78,73.04-106.91"/>
					<g>
						<path style="fill:#5D9AD5;" d="M701.15,410.72c7.74-13,22.82-21.28,37.95-20.82C731.62,402.66,717.02,410.92,701.15,410.72z"
							/>
						<path style="fill:#5D9AD5;" d="M688.34,418.69c6.02-4.64,9.8-11.74,11.63-19.12c1.83-7.38,1.84-15.09,1.46-22.68
							C692.74,388.92,687.71,403.57,688.34,418.69z"/>
						<path style="fill:#5D9AD5;" d="M671.38,434.36c8.26-13.05,8.8-30.61,1.37-44.15C667.34,403.78,666.63,419.16,671.38,434.36z"
							/>
						<path style="fill:#5D9AD5;" d="M657.84,451.24c3.81-16.67-1.24-35.11-13.02-47.51C640.8,421.66,645.86,441.4,657.84,451.24z"
							/>
						<path style="fill:#5D9AD5;" d="M645.24,472.43c1.16-17.94-8.5-36.15-24-45.26C622.7,444.56,631.11,461.26,645.24,472.43z"/>
						<path style="fill:#5D9AD5;" d="M637.13,496.75c-3.76-16.3-17.55-29.85-33.92-33.3C609.93,478.28,621.36,490.94,637.13,496.75z
							"/>
						<path style="fill:#5D9AD5;" d="M695.28,414.63c6.68-1.4,13.7-0.45,20.14,1.82c6.44,2.27,12.34,5.82,17.97,9.68
							C719.92,430.19,704.24,425.53,695.28,414.63z"/>
						<path style="fill:#5D9AD5;" d="M677.7,428.69c7.58-3.07,16.23-1.98,23.51,1.6c7.29,3.58,13.36,9.44,18.62,15.87
							C705.04,446.85,690.17,441.38,677.7,428.69z"/>
						<path style="fill:#5D9AD5;" d="M662.94,444.36c17.03,1.45,33.63,8.23,45.94,18.77c-8.74,1.46-18.13,0.44-26.38-2.87
							S667.18,451.36,662.94,444.36z"/>
						<path style="fill:#5D9AD5;" d="M649.97,465.02c17.81-1.39,36.43,4.73,49.3,16.2C682.4,484.56,663.38,478.78,649.97,465.02z"/>
						<path style="fill:#5D9AD5;" d="M641.17,484.41c16.58-3.68,33.61,6.33,42.07,24.71C667.62,510.81,652.22,501.53,641.17,484.41z
							"/>
					</g>
				</g>
				<g>
					<path style="fill:none;stroke:#5D9AD5;stroke-miterlimit:10;" d="M502.03,552.3c-16.24-53.53-17.64-111.35-3.99-164.77"/>
					<g>
						<path style="fill:#5D9AD5;" d="M496.26,394.51c-4.61-14.33-0.34-31.02,10.43-40.77C509.69,368.55,505.6,384.5,496.26,394.51z"
							/>
						<path style="fill:#5D9AD5;" d="M493.04,411.66c-2.83-14.99-12.11-28.74-24.84-36.81
							C469.16,389.98,479.14,404.37,493.04,411.66z"/>
						<path style="fill:#5D9AD5;" d="M489.72,439.72c-3.89-7.92-7.85-15.96-13.65-22.56c-5.8-6.6-13.79-11.7-22.32-11.92
							c4.1,7.33,8.24,14.74,13.84,20.96C473.19,432.41,480.45,437.43,489.72,439.72z"/>
						<path style="fill:#5D9AD5;" d="M488.21,466.99c-7.72-14.46-22.23-24.99-37.94-27.54
							C457.44,454.55,472.71,465.42,488.21,466.99z"/>
						<path style="fill:#5D9AD5;" d="M490.69,496.83c-10.53-13.13-26.5-21.51-42.81-22.48
							C457.42,487.98,474.08,496.04,490.69,496.83z"/>
						<path style="fill:#5D9AD5;" d="M495.52,525.02c-10.47-12.55-27.73-18.68-43.14-15.31
							C465.76,518.97,481.83,523.97,495.52,525.02z"/>
						<path style="fill:#5D9AD5;" d="M495.03,402.36c6.08-10.53,16.69-18.09,28.49-20.3C519.49,394.16,507.74,402.91,495.03,402.36z
							"/>
						<path style="fill:#5D9AD5;" d="M490.86,428.4c7.75-13.66,23.02-22.31,38.59-21.84C521.66,420.51,506.55,429.7,490.86,428.4z"
							/>
						<path style="fill:#5D9AD5;" d="M488.46,455.84c8.91-13.36,24.7-21.46,40.65-20.86C518.34,446.26,504.23,454.1,488.46,455.84z"
							/>
						<path style="fill:#5D9AD5;" d="M489.55,484.69c7.51-14.03,23.01-22.97,38.77-22.35C519.29,475.01,504.65,483.18,489.55,484.69
							z"/>
						<path style="fill:#5D9AD5;" d="M492.89,512.65c7.25-15.63,23.42-26.24,40.42-26.53c-5.55,5.53-11.14,11.09-17.57,15.52
							C509.31,506.06,501.95,509.36,492.89,512.65z"/>
					</g>
				</g>
			</g>
			<g>
				<g>
					<path style="fill:none;stroke:#842000;stroke-linecap:round;stroke-miterlimit:10;" d="M152.86,217.91"/>
					<g>
						<path style="fill:#17194D;" d="M161.39,174c0,0-5.07-19.59-21.17-17.24c-16.09,2.35-20.16,13.85-19.23,27.23
							c0.93,13.38,0.73,29.22-16.9,39.11s0.4,22.52,3.41,30.24c3,7.73,0.41,18.07-8.03,24.29s-10.28,28.65,18.77,26.95
							c29.05-1.7,39.5-22.19,33.9-29.17c-5.61-6.97-15.41-22.09-5.59-25.1c9.82-3.02,28.2-35.07,22.82-52.02
							C164,181.35,161.39,174,161.39,174z"/>
						<ellipse style="fill:#EBCDC5;" cx="146.1" cy="179.63" rx="10.18" ry="9.58"/>
					</g>
					<g>
						<g>
							<path style="fill:#3C64AD;" d="M244.66,565.46c-17.28-0.26-27.36,0-36.2,0.26c-2.05-8.47-4.03-16.79-6.03-25.19
								c-5.17-21.79-10.41-44.09-16.85-70.8c-0.03-0.15-0.08-0.31-0.11-0.46c0,34.22,1.53,58.36,2.87,98.42
								c-14.18-2.47-23.94-3.4-37.96-2c-15.4-74.11-26.04-106.85-22.15-140.84c1.39-12.13,4.63-24.41,10.16-38.78
								c2.19-5.72,4.76-11.77,7.72-18.28c26.71,4.92,53.17,10.42,79.48,14.33c0,0.08,0.01,0.17,0.01,0.24
								c0.88,13.65,0.19,12.42,0.6,28.33c0.8,5.21,1.57,10.24,2.29,15.09C237.54,486.57,240.67,520.91,244.66,565.46z"/>
							<path style="fill:#2C529E;" d="M228.48,425.8c-32.85,7.69-67.55,7.37-100.26-0.94c1.39-12.13,4.63-24.41,10.16-38.78
								c29.06-1.55,58.13-2.79,87.21-3.7c0.88,13.65,0.19,12.42,0.6,28.33C226.99,415.92,227.75,420.95,228.48,425.8z"/>
							<path style="fill:#2C529E;" d="M202.43,540.54c-5.17-21.79-10.41-44.09-16.85-70.8c-0.01-0.21-0.02-0.41-0.02-0.62
								c-0.09-2.5-0.18-5.02,0.14-8c5.29-2.69,10.57-5.38,15.54-8.21C200.23,482.1,200.62,511.37,202.43,540.54z"/>
						</g>
						<g>
							<g>
								<path style="fill:none;stroke:#1F2F7A;stroke-linecap:round;stroke-miterlimit:10;" d="M190.61,415.6
									c2.21,14.5,2.05,29.37-0.47,43.82"/>
								<path style="fill:none;stroke:#1F2F7A;stroke-linecap:round;stroke-miterlimit:10;" d="M198.19,414.46
									c0.1,9.47,2.86,19.16,0.17,28.25c-0.49,1.67-1.19,3.33-2.39,4.59c-1.2,1.26-2.98,2.07-4.69,1.76"/>
							</g>
							<g>
								<path style="fill:none;stroke:#1F2F7A;stroke-miterlimit:10;" d="M142.18,396.45c-5.7,16.73-7.48,34.61-6.93,52.27
									s3.39,35.17,6.72,52.53c4.11,21.39,9,42.62,14.64,63.66"/>
								<path style="fill:none;stroke:#1F2F7A;stroke-miterlimit:10;" d="M146.66,405.3c0.39,6.69,0.06,13.41-1,20.03
									c-0.27,1.67-0.6,3.38-1.57,4.76c-1.79,2.54-5.17,3.28-8.23,3.81"/>
							</g>
						</g>
					</g>
					<g>
						<path style="fill:#35BAB4;" d="M199.74,267.34c0,0,9.5,0.05,18.47,8.02c6.67,5.93,14.49,21.13,35.01,60.08
							c0,0-7.75,31.44-12.98,27.17C191.12,322.61,199.74,267.34,199.74,267.34z"/>
						<path style="fill:#75EBDB;" d="M253.22,327.11c-5.21-2.06-14.34,1.6-17.97,5.87c-3.8,4.46-5.48,11.79-4.76,17.61
							s4.67,11.58,10.22,13.44c5.56,1.86,14.35-0.2,17.04-5.41c2.21-4.29,1.46-9.48,0.16-14.13
							C256.6,339.84,255.48,332.71,253.22,327.11z"/>
						<path style="fill:#F69887;" d="M280.07,306.1c0.07,1.13-2.38,3.41-2.7,6.23c-1.51,13.63-10.15,41.9-19.29,47.5
							c-2.33,1.42-4.4,2.28-6.24,2.7c0,0-4.21,0.68-10-2.26c-1.28-1.04-2.26-2.2-3.01-3.02c-2.1-2.28-5.03-13.41,7.34-23.75
							c0.79-0.65,1.53-1.33,2.23-2c11.72-11.34,12.49-25.67,12.49-25.67l9.81-0.45l9.3,0.1
							C280.03,305.64,280.05,305.84,280.07,306.1z"/>
						<g>
							<path style="fill:#F69887;" d="M260.89,305.82c0,0-1.49-12.32,9.23-17.81c10.72-5.49,18.13-5.34,19-4.64
								c0.87,0.7-4.32,5.77-10.16,7.54c0,0,5.09,2.15,13.31-0.83c8.22-2.98,11.01-7.21,13.52-6.5c2.52,0.71-2.89,8.59-15.57,12.48
								c0,0,6.18,0.1,12.4-2.03s6.63,2.2,1.94,4.13c0,0,2.3,0.53,1.84,2.79c-0.46,2.25-4.57,2.32-4.57,2.32s1.92,1.04,0.63,3.06
								c-1.3,2.02-9.74,2.81-17.53,2.82c-7.79,0-15.23-1.69-15.23-1.69L260.89,305.82z"/>
							<path style="fill:none;stroke:#AE3838;stroke-width:0.75;stroke-linecap:round;stroke-miterlimit:10;" d="M279.54,292.44
								c0,0,0.39,5.55-8.17,7.44"/>
							<path style="fill:none;stroke:#AE3838;stroke-width:0.75;stroke-linecap:round;stroke-miterlimit:10;" d="M304.56,298.15
								c0,0-6.9,1.78-13.79,1.68"/>
							<path style="fill:none;stroke:#AE3838;stroke-width:0.75;stroke-linecap:round;stroke-miterlimit:10;" d="M301.84,303.26
								c0,0-5.48,1.23-13.92,0.87"/>
						</g>
					</g>
					<g>
						<path style="fill:#41D8D3;" d="M230.33,421.86c-12.52,7.98-63.43,4.19-91.22-4.02c-0.08-6.51-0.06-12.12,0.83-19.9
							c-4.04,7.49-5.99,11.29-8.21,17.38c-2.11-0.83-3.97-1.69-5.52-2.58c0,0,18.09-49.5,16.05-61.1
							c-2.13-12.11-19.96-52.73-16.05-61.26c3.66-7.98,10.09-13.66,17.82-17.56c14.98-7.58,34.86-8.55,48.91-6.98
							c5.2,0.58,9.61,1.52,12.68,2.59c9.13,3.2,19.45,42.62,20.24,57.86C226.63,341.54,230.33,421.86,230.33,421.86z"/>
						<path style="fill:#75EBDB;" d="M192.93,265.85c0.23,13.45-2.19,29.05-8.49,41.12c-14.47-10.2-26.94-21.65-40.42-34.14
							C159,265.24,178.87,264.27,192.93,265.85z"/>
						<path style="fill:#35BAB4;" d="M158.17,375.68c15.04,19.63,38.78,32.34,63.47,33.97c-12.71,2.47-26.22,0.58-37.77-5.26
							C172.32,398.54,162.8,388.77,158.17,375.68z"/>
					</g>
					<g>
						<path style="fill:#F69887;" d="M183.26,299.32c-12.19-7.63-22.64-16.93-32.28-27.02c1.39-4.19,2.27-8.61,2.58-13.15
							c0.3-4.27,0.09-8.63-0.71-13c9.9,0.88,17.1,0.24,26.74,0.56c0.14,3.06,0.51,7.56,1.36,11.97c0.46,2.4,1.21,4.03,2.16,5.1
							c1.4,1.59,3.23,1.97,5.17,1.88C188.61,277,187.11,288.87,183.26,299.32z"/>
						<path style="fill:#EB6C6A;" d="M183.12,263.8c-4.5,1.03-9.16,1.3-13.75,0.75c-5.57-0.66-10.98-2.54-15.81-5.39
							c0.3-4.27,0.09-8.63-0.71-13c9.9,0.88,17.1,0.24,26.74,0.56c0.14,3.06,0.51,7.56,1.36,11.97
							C181.42,261.1,182.17,262.73,183.12,263.8z"/>
					</g>
					<g>
						<g>
							<g>
								<path style="fill:#F69887;" d="M168.6,396.34c-1.93-0.14-3.09-1.52-4.79-3.58c-0.73-0.86-1.51-1.84-2.52-2.92
									c-3.42-3.62-8.74-3.58-8.74-3.58c0.22,0.06,4.29,1.31,8.08,6.16c3.93,4.98,6.38,14.63,4.05,14.55
									c-2.34-0.12-5.29-4.15-5.29-4.15c0.54,1.86,0.5,6.09-1.36,6.57c-0.19,0.08-0.37,0.1-0.6,0.06
									c-2.33-0.29-3.95-3.03-4.14-3.38c0.55,2.26-0.84,6.21-3.66,3.94c-2.82-2.27-7.73-9.47-7.73-9.47s0,0-0.02,0.01
									c-0.02,0.01-0.03,0.03-0.07,0.05c-0.84,0.63-7.92,4.04-15.2,1.47c-6.11-2.16-8.38-5.8-8.38-5.8l8.46-14.55
									c0,0,5.35,1.72,11.39-0.03c0.83-0.23,1.68-0.53,2.52-0.93c0.04-0.01,0.08-0.03,0.12-0.05c2.31-0.83,4.3-1.44,5.57-1.68
									c2.62-0.48,5.09-0.37,7.05,0.24c2.47,0.79,4.57,1.68,6.31,2.59c5.49,2.92,7.68,6.2,8.25,7.54
									C168.67,391.23,171.36,396.54,168.6,396.34z"/>
								<path style="fill:none;stroke:#AE3838;stroke-width:0.75;stroke-linecap:round;stroke-miterlimit:10;" d="M152.86,405.46
									c0,0-3.95-7.98-7.55-9.67"/>
								<path style="fill:none;stroke:#AE3838;stroke-width:0.75;stroke-linecap:round;stroke-miterlimit:10;" d="M159.08,402.08
									c0,0-2.91-7.94-8.04-10.36"/>
							</g>
							<g>
								<path style="fill:#F69887;" d="M129.83,382.71c-4.27,6.68-6.49,11.1-8.72,15.52c-43.22-29.25-44.37-38.47-43.12-43.08
									c0.19-0.71,0.43-1.3,0.58-1.84c0.45-1.55,6.38-11.41,11.73-16.41c2.02-1.9,3.96-3.09,5.48-2.89
									c2.54,0.33,3.83,2.41,4.59,5.21c1.36,4.93,1.12,12.1,3.23,16.07c2.37,2.97,4.88,6.1,7.5,9.19
									C117.04,371.54,123.49,378.43,129.83,382.71z"/>
								<path style="fill:#EB6C6A;" d="M111.09,364.48c-11.5-0.91-22.82-4.09-33.1-9.34c0.19-0.71,0.43-1.3,0.58-1.84
									c0.45-1.55,6.38-11.41,11.73-16.41c3.36,0.76,6.71,1.53,10.06,2.33c1.36,4.93,1.12,12.1,3.23,16.07
									C105.97,358.26,108.48,361.39,111.09,364.48z"/>
							</g>
						</g>
						<g>
							<path style="fill:#41D8D3;" d="M152.86,314.14c-2.26-11.81-6.91-38.88-18.87-33.58c-9.69,4.29-31.6,30.05-49.11,57.51
								c2.98,6.96,20.3,15.12,28.41,21.12C133.24,337.39,140.17,335.82,152.86,314.14z"/>
							<path style="fill:#75EBDB;" d="M84.63,336.24c11.13,8.43,21.09,14.01,33.6,19.53c-2.52,3.52-2.83,5.41-5.35,8.93
								c-24.73-9.82-34.3-15.94-34.3-15.94S79.67,342.18,84.63,336.24z"/>
							<g>
								<path style="fill:#35BAB4;" d="M138.38,334.42c3.91-4.06,7.44-8.56,9.85-13.65c2.41-5.09,3.67-10.82,2.98-16.42
									c2.32,5.69,2.24,12.31-0.21,17.95C148.54,327.92,143.74,332.49,138.38,334.42z"/>
								<path style="fill:#35BAB4;" d="M145.02,328.84c6.76-3.28,12.74-8.13,17.33-14.07c-3.96,9.22-12.59,16.29-22.4,18.37
									C142.04,331.56,143.71,329.48,145.02,328.84z"/>
							</g>
						</g>
					</g>
					<g>
						<path style="fill:#EB6C6A;" d="M214.14,226.61c1.93,3.83-1.12,8.99-6.81,11.52s-11.86,1.47-13.78-2.36s1.12-8.99,6.81-11.52
							C206.04,221.72,212.22,222.78,214.14,226.61z"/>
						<g>
							<path style="fill:#F69887;" d="M203.27,223.57c-0.34,20.36-8.07,34.92-24.95,36.74c-15.96,1.72-38.78-13.41-41.9-37.43
								c-2.62-20.19,14.21-36.95,33.15-36.67C188.52,186.48,203.6,203.21,203.27,223.57z"/>
							<path style="fill:#EB6C6A;" d="M136.12,230.15c0,0,1.14-10.28,9.01-15.9c7.87-5.63,10.49-10.96,10.49-10.96s8.5,5.03,21.17,4
								c12.67-1.03,20.18-0.08,23.15,5.59s7.81-8.03,0-14.4c-7.81-6.37-45.01-15.69-45.77-15.1c-0.76,0.59-6.11,1.78-11.3,5.48
								s-13.06,14.51-12.43,16.14L136.12,230.15"/>
						</g>
						<g>
							<path style="fill:#271F64;" d="M209.43,200.44c0.02,15.45-6.37,29-6.37,29c-0.84-22.31-8.61-26.06-23.72-26.27
								c-15.11-0.19-26.65-7.7-26.65-7.7c0.84,6.91-7.01,12.26-11.09,20.84c-3.91,8.22-6.13,13.15-6.13,13.15
								c-4.54-9.39-8.67-18.17-9.18-29.11c-0.22-4.26,0.23-8.23,1.65-11.6c5.03-12.04,18.26-12.43,18.26-12.43
								c17.2-19.75,53.09-12.05,60.64,8.48C208.73,189.94,209.43,195.3,209.43,200.44z"/>
							<path style="fill:#473B8C;" d="M209.43,200.44c0,0-5.91-19.69-24.23-26.65c-18.33-6.95-35.49,7.25-35.49,7.25
								s-21.94,1.48-23.42,19.33c-0.22-4.26,0.23-8.23,1.65-11.6c5.03-12.04,18.26-12.43,18.26-12.43
								c17.2-19.75,53.09-12.05,60.64,8.48C208.73,189.94,209.43,195.3,209.43,200.44z"/>
						</g>
						<path style="fill:#F69887;" d="M126.01,223.96c-2.05,3.77,0.83,9.02,6.43,11.71c5.6,2.69,11.8,1.82,13.85-1.96
							c2.05-3.77-0.83-9.02-6.43-11.71S128.06,220.19,126.01,223.96z"/>
						<g>
							<g>
								<g>
									<path style="fill:#1C2B45;" d="M194.65,226.96c-0.88,0.06-1.54-0.88-1.66-2.4c-0.12-1.52,0.37-2.54,1.25-2.61
										c0.88-0.06,1.54,0.88,1.66,2.4C196.02,225.87,195.54,226.9,194.65,226.96z"/>
								</g>
							</g>
							<g>
								<g>
									<path style="fill:#1C2B45;" d="M170.74,229.47c-0.89,0.06-1.54-0.88-1.66-2.4c-0.12-1.52,0.37-2.54,1.25-2.61
										c0.88-0.06,1.54,0.88,1.66,2.4C172.11,228.38,171.62,229.4,170.74,229.47z"/>
								</g>
							</g>
							<path style="fill:none;stroke:#A83B4F;stroke-linecap:round;stroke-miterlimit:10;" d="M188.41,228.73
								c1.34,2.58,1.37,5.8,0.09,8.41"/>
							<path style="fill:#A83B4F;" d="M178.59,240.47c-3.63,0.03-8.24,4.27-5.04,6.58c1.84,1.32,3.49-1.01,5.65-0.21
								c1.91,0.71,4.71,3.82,6.05,0.39C186.18,244.84,184.56,240.42,178.59,240.47z"/>
							<path style="fill:none;stroke:#271F64;stroke-linecap:round;stroke-miterlimit:10;" d="M186.98,211.17
								c3.05-2.23,7.51-2.32,10.65-0.21"/>
							<path style="fill:none;stroke:#271F64;stroke-linecap:round;stroke-miterlimit:10;" d="M171.58,215.89
								c-3.06,2.64-7.43,3.93-11.58,3.41"/>
						</g>
					</g>
				</g>
				<g>
					<g>
						<g>
							<path style="fill:#3F65AE;" d="M350.42,528.92c10.42,1.4,20.91,2.38,31.42,2.98c3.11-30.68,6.27-56.53,8.98-67.63
								c0.01-0.06,0.03-0.12,0.04-0.17l3.9,54.93l0.95,13.44c2.98,0.08,5.96,0.13,8.93,0.15c13.61,0.08,27.24-0.2,40.85-0.83
								c1.84-36.8,3.88-87.18,2.91-113.51c-0.04-0.84-0.07-1.66-0.11-2.45c-0.07-1.1-0.12-2.11-0.19-3.1
								c-0.23-3.58-0.55-6.48-0.97-8.55l-31.52-3.47l-3.84-0.42l-73.21-8.57c0,0-0.47,4.8-0.68,8.75c-0.01,0.21-0.02,0.44-0.04,0.67
								c-0.06,1.03-0.12,2.17-0.19,3.42c-0.31,5.9-0.75,14.16-1.25,24.21c-1.22,24.55-2.83,59.75-4.05,97.26
								C338.37,527.06,344.37,528.11,350.42,528.92z"/>
							<path style="fill:#2C529E;" d="M448.41,418.29c-36.29,10.24-74.44,13.81-112,10.49c0.5-10.05,0.94-18.31,1.25-24.21
								c12.36,1.45,24.96,0.44,37.4-0.56c13.52-1.1,27.04-2.19,40.56-3.29l31.52,3.47c0.42,2.07,0.74,4.97,0.97,8.55
								c0.07,0.99,0.12,2,0.19,3.1C448.34,416.63,448.37,417.45,448.41,418.29z"/>
							<path style="fill:#2C529E;" d="M406.89,452.11c-2.35,23.87-4.14,47.11-5.16,68.46c-0.74-0.74-3.99-1.08-6.97-1.53l-3.9-54.93
								c-0.01,0.05-0.03,0.11-0.04,0.17c0.13-0.94,0.28-1.85,0.45-2.72C397.58,459.35,403.44,455.11,406.89,452.11z"/>
						</g>
						<g>
							<g>
								<path style="fill:none;stroke:#1F2F7A;stroke-linecap:round;stroke-miterlimit:10;" d="M395.92,405.62
									c1.42,17.84,1.04,35.82-1.13,53.59"/>
								<path style="fill:none;stroke:#1F2F7A;stroke-linecap:round;stroke-miterlimit:10;" d="M405.72,405.92
									c1,9.59,2,19.34,0.2,28.8c-0.5,2.61-1.24,5.25-2.82,7.39c-1.58,2.14-4.14,3.71-6.79,3.49"/>
							</g>
							<path style="fill:none;stroke:#1F2F7A;stroke-linecap:round;stroke-miterlimit:10;" d="M344.9,411.61
								c-0.18,3.94-0.32,8.37-0.64,11.05c-0.63,5.25-1.37,11.77-7.35,12.6"/>
							<path style="fill:none;stroke:#1F2F7A;stroke-linecap:round;stroke-miterlimit:10;" d="M439.73,410.58
								c0,5.22,0.03,7.11,0.13,10.51c0.1,3.4,0.18,6.88,1.26,10.06c1.08,3.17,3.4,6.03,6.36,6.5"/>
						</g>
					</g>
					<g>
						<g>
							<path style="fill:#F9978A;" d="M498.5,338.87c-3.2,15.76-52.36,58.82-52.55,58.86l-11.24-18.11c0,0,24.07-27.13,30.31-42.94
								c0-0.01,0.02-0.03,0.02-0.04c-0.32-0.39-0.63-0.78-0.94-1.2c-0.95-1.25-1.83-2.44-2.65-3.58c-4.54-6.28-7.28-10.9-8.93-14.23
								c-0.77-1.57-1.31-2.86-1.67-3.9c1.03-1.66,2.04-3.06,2.47-3.31c0.14-0.1,0.59-0.3,1.24-0.56l6.52-0.08l20.38-0.23l0.77-0.52
								c0,0,3.52,3.91,7.31,9.12C494.35,324.78,499.59,333.5,498.5,338.87z"/>
							<path style="fill:#EB6C6A;" d="M461.45,331.86c9.86-3.45,19.3-8.06,28.09-13.71c-3.79-5.21-7.31-9.12-7.31-9.12l-0.77,0.52
								l-20.38,0.23c-2.85,2.62-5.71,5.23-8.56,7.85"/>
						</g>
						<path style="fill:#CF3045;" d="M417,248.14c1.31-6.42,21.03-1.46,33.34,12.72c12.31,14.18,34.89,46.63,34.89,46.63
							l-34.39,26.26C450.84,333.75,412.61,269.73,417,248.14z"/>
					</g>
					<g>
						<g>
							<g>
								<path style="fill:#F9978A;" d="M387.42,271.91c-2.81-1.24-22.18-9.54-14.71-32.37c0.07-0.21,0.14-0.42,0.2-0.62
									c0.06-0.16,0.12-0.34,0.17-0.54c1.06-3.53,1.98-8.39,1.68-14.03l14.19,1.93h14.32c-0.48,2.49-0.69,4.86-0.71,7.05
									c-0.02,2.87,1.89,14.82,1.89,14.82S403.12,269.41,387.42,271.91z"/>
								<path style="fill:#EB6C6A;" d="M402.57,233.32c-2.64,2.31-12.34,9.34-29.66,5.59c0.06-0.16,0.12-0.34,0.17-0.54
									c1.06-3.53,1.98-8.39,1.68-14.03l14.19,1.93h14.32C402.8,228.77,402.59,231.14,402.57,233.32z"/>
							</g>
							<path style="fill:#CF3045;" d="M450.95,414.94c-19.38,8.04-104.71,5.3-118.03,0.83c0,0,9.42-44.11,0.26-109.55
								c-5.91-42.21,2.97-46.8,7.87-52.47c3.89-4.5,13.34-7.34,20.57-8.93c4.95-1.08,8.85-1.58,9.23-1.61
								c-0.69,18.8,17.54,26.31,17.54,26.31s15.94-10.03,15.4-25.62c0.32,0.01,3.13-0.05,6.98,0.15c7.54,0.4,19.09,1.77,23.75,6.47
								c5.29,5.32,6.92,9.43,11.47,51.8C448.38,324.63,450.95,414.94,450.95,414.94z"/>
							<path style="fill:#941237;" d="M410.77,244.05c-0.75,8.8-4.14,17.39-9.68,24.27c-2.52,3.14-5.67,6.04-9.59,6.97
								c-5.28,1.25-10.74-1.35-14.98-4.73c-7.94-6.32-13.3-15.73-14.9-25.74c4.95-1.08,8.85-1.58,9.23-1.61
								c-0.69,18.8,17.54,26.31,17.54,26.31s15.94-10.03,15.4-25.62C404.11,243.91,406.92,243.85,410.77,244.05z"/>
							<g>
								<path style="fill:#941237;" d="M434.71,350.03c-8.56,17.88-22.32,31.8-37.96,40.14c-15.64,8.34-33.09,11.25-50.15,9.76
									c10.48,3.25,21.56,2.3,32.22,0.07c12.35-2.59,24.66-6.98,35.11-15.34C424.38,376.3,432.83,363.57,434.71,350.03z"/>
								<path style="fill:#941237;" d="M438.79,385.81c-24.81,17.64-57.13,24.34-86.91,18.03c10.9,5.56,23.61,6.32,35.82,5.55
									c9.58-0.6,19.21-2.11,28.05-5.84C424.6,399.82,432.65,393.7,438.79,385.81z"/>
							</g>
						</g>
						<g>
							<path style="fill:#941237;" d="M447.31,326.17c-1.98-22.44-3.43-38.22-6.66-62.9C448.03,289.07,450.15,307.2,447.31,326.17z"
								/>
							<path style="fill:#941237;" d="M447,314c3.96-14.7,4.23-29.29,5-45.3c2.65,13.77,1.47,38.88-4.69,57.14
								C446.92,323.31,446.59,315.51,447,314z"/>
						</g>
					</g>
					<g>
						<path style="fill:#EB6C6A;" d="M436.06,200.77c1.87,4.22-1.57,9.66-7.68,12.14c-6.11,2.48-12.58,1.07-14.44-3.15
							c-1.87-4.22,1.57-9.66,7.68-12.14C427.72,195.14,434.19,196.55,436.06,200.77z"/>
						<path style="fill:#EB6C6A;" d="M343.4,195.01c-2.33,3.99,0.49,9.77,6.28,12.93c5.8,3.15,12.38,2.48,14.7-1.51
							c2.33-3.99-0.49-9.77-6.28-12.93C352.31,190.35,345.73,191.03,343.4,195.01z"/>
						<g>
							<path style="fill:#F9978A;" d="M425.49,193.93c-0.25,11.84-12.98,42.01-37.08,40.38c-28.49-1.92-34.25-36.68-33.67-45.2
								c1.73-25.54,17.04-41.58,37.02-40.47C411.74,149.74,426.1,165.3,425.49,193.93z"/>
							<path style="fill:#EB6C6A;" d="M356,194.98c1.32-3.98,4.32-7.14,7.02-10.35c2.7-3.21,4.95-9.46,5.57-13.15
								c4.07,3.21,8.82,5.47,13.27,6.11c4.81,0.69,9.36,0.47,10.65-3.86c2.46,2.82,7.74,4.81,11.82,4.78
								c2.01-0.02,4.1-0.87,5.42-2.39c3.4,3.89,8.15,4.98,8.15,4.98s5.79,11.41,6.46,16.03c0.37-8.27,0.08-18.1-1.13-26.43
								c-17.78-8.23-37.01-13.3-56.26-15.08C359.7,167.14,355.56,180.6,356,194.98z"/>
						</g>
						<g>
							<path style="fill:#302565;" d="M432.62,171.61c-1.07,1.96-2.47,3.69-3.94,5.02c0.19,8.43-0.9,17.04-4.71,26.2
								c-0.26-11.69-1.95-14.88-3.61-23.05c-4.02-1.67-7.59-4.41-10.41-7.84c-1.01,2.52-4.87,4.39-8.21,3.57
								c-3.35-0.82-7.67-2.97-11.02-6.21c1.01,1.9-0.14,5.49-3.87,5.75c-5.71,0.4-14.12-3.61-20.1-7.56
								c-3.69,16.35-6.68,13.77-11.17,30.86c-4.9-10.48-7.3-18.66-7.33-28.98c-0.01-4.93,0.49-13.16,10.92-15.28
								c3.27-5.99,7.53-11.36,12.49-15.85c4.22-3.82,8.93-6.98,13.99-9.35c2.99-1.41,6.32-2.56,9.5-1.75
								c3.17,0.81,5.91,4.27,4.94,7.58c5.7-2.35,12.04-2.84,17.97-1.4c3.54,0.86,7.09,2.52,9.24,5.63
								c2.14,3.09,0.33,8.43-2.23,11.94c4.5,2.15,9.23,7.13,9.59,12.35C434.88,166.17,434.02,169.09,432.62,171.61z"/>
							<path style="fill:#473B8C;" d="M432.62,171.61c0.16-3.32-0.57-6.69-2.16-9.61c-2.76-5.03-8.04-8.61-13.74-9.31
								c1.28-1.47,2.61-2.8,3.54-4.41c0.93-1.61,1.41-3.58,0.88-5.36c-0.88-2.94-4.09-4.49-7.1-5.16
								c-6.54-1.46-13.63-0.35-19.4,3.07c0.35-2.62,0.17-5.15-1.11-6.72c-1.29-1.58-3.41-2.29-5.45-2.26c-2.04,0.02-4,0.66-5.9,1.38
								c-3.63,1.38-7.14,3.07-10.49,5.03c4.22-3.82,8.93-6.98,13.99-9.35c2.99-1.41,6.32-2.56,9.5-1.75
								c3.17,0.81,5.91,4.27,4.94,7.58c5.7-2.35,12.04-2.84,17.97-1.4c3.54,0.86,7.09,2.52,9.24,5.63
								c2.14,3.09,0.33,8.43-2.23,11.94c4.5,2.15,9.23,7.13,9.59,12.35C434.88,166.17,434.02,169.09,432.62,171.61z"/>
						</g>
						<g>
							<path style="fill:none;stroke:#302565;stroke-linecap:round;stroke-miterlimit:10;" d="M398.14,184.18
								c3.26-0.88,8.32-1.31,12.08,2.67"/>
							<path style="fill:none;stroke:#302565;stroke-linecap:round;stroke-miterlimit:10;" d="M369.68,188.85
								c2.91,0.46,7.25,0.59,11.51-1.32"/>
							<g>
								<g>
									<path style="fill:#142843;" d="M404.84,199.1c-0.94-0.05-1.48-1.15-1.39-2.79c0.09-1.64,0.75-2.67,1.69-2.62
										c0.94,0.05,1.48,1.15,1.39,2.79S405.77,199.15,404.84,199.1z"/>
								</g>
							</g>
							<g>
								<g>
									<path style="fill:#142843;" d="M379.24,197.35c-0.94,0.03-1.58-1.01-1.65-2.66c-0.07-1.65,0.5-2.73,1.43-2.76
										c0.94-0.03,1.58,1.01,1.65,2.66C380.74,196.24,380.18,197.32,379.24,197.35z"/>
								</g>
							</g>
							<path style="fill:none;stroke:#AE3838;stroke-linecap:round;stroke-miterlimit:10;" d="M387.62,201.47
								c-0.78,2.42-0.96,5.04-0.51,7.55"/>
							<path style="fill:none;stroke:#AE3838;stroke-linecap:round;stroke-miterlimit:10;" d="M378.84,214.76
								c4.14-0.26,8.36,1.14,11.53,3.83"/>
						</g>
					</g>
					<g>
						<g>
							<path style="fill:#EB6C6A;" d="M324.44,293.77c-0.71,13.53-1.4,27.19,0.77,40.57c2.17,13.38,9.16,34.52,18.06,35.58
								c2.7-13.85,5.39-27.71,8.09-41.56c0.46-2.35,0.9-4.87-0.03-7.09c-0.63-1.51-1.84-2.7-3.02-3.84
								C340.36,309.69,332.41,301.97,324.44,293.77z"/>
							<g>
								<path style="fill:#CF3045;" d="M349.69,248.16c-9.67,0.96-19.73,10.71-23.38,23.06c-5.78,19.58-7.12,35.45-9,59.95
									c12.35,1.76,26.3,4.06,38.66,2.84C360.46,306.6,359.03,246.87,349.69,248.16z"/>
								<path style="fill:#941237;" d="M351.47,259.63c3.51,23.82,3.98,48.09,1.38,72.03C357.86,307.67,359.71,282.19,351.47,259.63
									z"/>
							</g>
						</g>
						<g>
							<path style="fill:#FAA998;" d="M375.78,276.91c0,0-3.33,44.05-8.04,68.73c-4.71,24.68-23.96,25.53-26.46,24.17
								c-7.4-4.03-10.58-18-6.71-27.82c6.93-17.57,22.46-57.57,24.69-68.45L375.78,276.91z"/>
							<g>
								<path style="fill:#FAA998;" d="M383.68,261.74c0,0-0.53,10.24-7.9,15.17l-16.52-3.37l4.76-30.75c0,0,0.37-9.38,4.58-14.61
									c4.21-5.23,13.69-4.48,14.87-1.42c1.19,3.06-4.66,2.35-7.52,3.47c-2.86,1.12-3.91,8.16-3.91,8.16s7.03-3.36,11-2.56
									c3.97,0.79,9.84,7.15,6.8,10.63c0,0,3.13,2.47,0.65,6.17C390.49,252.62,394.69,260,383.68,261.74z"/>
								<g>
									<path style="fill:none;stroke:#AE3838;stroke-width:0.75;stroke-linecap:round;stroke-miterlimit:10;" d="M382.91,254.73
										c0,0-0.44,1.24,1.22,2.6"/>
									<path style="fill:none;stroke:#AE3838;stroke-width:0.75;stroke-linecap:round;stroke-miterlimit:10;" d="M390.49,252.62
										c0,0-1.93-3.75-7-2.72"/>
									<path style="fill:none;stroke:#AE3838;stroke-width:0.75;stroke-linecap:round;stroke-miterlimit:10;" d="M389.84,246.45
										c0,0-5.6-4.72-11.01-1.5"/>
									<path style="fill:none;stroke:#AE3838;stroke-width:0.75;stroke-linecap:round;stroke-miterlimit:10;" d="M385.77,255.78
										c-1.33,1.26-2.09,3.11-2.04,4.94"/>
								</g>
							</g>
						</g>
					</g>
				</g>
				<g>
					<path style="fill:none;stroke:#842000;stroke-linecap:round;stroke-miterlimit:10;" d="M608.68,210.06"/>
					<path style="fill:#17194D;" d="M620.65,186.75c9.26-11.45,13.46,37.31,7.54,51.17c-1.03,2.42-2.22,4.8-2.76,7.38
						s-0.37,5.44,1.14,7.59c1.84,2.62,5.2,3.63,7.64,5.69c3.19,2.69,4.62,7.11,4.38,11.3c-0.24,4.19-1.99,8.16-4.24,11.69
						c-6.43,10.06-20.23,15.89-31.65,19.11c-11.42,3.22-23.58,3.02-35.27,1.05c-8.34-1.41-17.11-4.08-22.37-10.76
						c-5.51-6.99-5.67-17.75-0.38-24.91c2.63-3.55,6.55-6.26,8.1-10.41c2.1-5.63-3-8.99-4.26-13.7
						c-3.62-13.57,6.91-12.75,0.77-43.86c-0.45-2.26,13.89,0.37,16.19,0.26c18.63-0.93,37.38,0.67,55.42,5.12
						C622.67,199.15,617.99,190.03,620.65,186.75z"/>
					<path style="fill:#EB8175;" d="M563.72,278.7c-1.91-6.29-4.65-12.33-7.55-17.38c-6.95,0.56-17.8,2.53-22.4,7.78
						c-4.37,4.98-4.53,12.23-5.07,18.83c-1.6,19.65-5.34,37.64-5.65,57.35c-0.09,5.37,0.46,11.11,3.81,15.31
						c2.78,3.48,8.2,5.33,11.78,2.68c3.2-2.37,3.5-6.94,3.67-10.92C543.34,327.03,550.18,301.97,563.72,278.7z"/>
					<g>
						<path style="fill:#EB6C6A;" d="M527.38,469.57c-4.94,16.04-9.89,32.08-14.83,48.13c17.83,3.62,58.61,0.36,60.07-1.17
							c1.46-1.53,2.24-3.57,2.98-5.56c4.2-11.24,8.39-22.48,12.59-33.72C567.55,477.99,546.84,476.27,527.38,469.57z"/>
						<path style="fill:#F69887;" d="M646.56,454.5c-3.47,18.79-8.39,37.33-14.7,55.45c-1.64,4.72-3.74,9.83-8.37,12.22
							c-2.86,1.48-6.25,1.66-9.52,1.78c-15.08,0.57-30.18,0.54-45.25-0.08c5.01-13.11,7.95-26.91,8.7-40.82
							C600.47,474.94,623.53,466.83,646.56,454.5z"/>
						<g>
							<g>
								<path style="fill:#3F65AE;" d="M638.61,499.1c-45.59,6.24-93.06,4.26-122.41-2.28c5.34-20.61,23.87-88.06,24.61-94.45
									c0.19-1.6,0.39-4.03,0.59-7c0.11-1.4,0.2-2.91,0.28-4.51c0.48-8.25,0.89-18.83,0.92-27.53c0.01-0.29,0.01-0.58,0.01-0.85
									c28.93-1,55.28,1.88,81.99-1.77c5.51,5.04,9.96,10.61,13.49,16.6c0.29,0.5,0.59,1.01,0.87,1.51
									C658.09,413,648.75,460.06,638.61,499.1z"/>
								<path style="fill:#2C529E;" d="M638.96,378.83c-13.33,6.44-45.47,20.58-97.56,16.55c0.11-1.4,0.2-2.91,0.28-4.51
									c0.48-8.25,0.89-18.83,0.92-27.53c0.01-0.29,0.01-0.58,0.01-0.85c28.93-1,55.28,1.88,81.99-1.77
									c5.51,5.04,9.96,10.61,13.49,16.6C638.38,377.82,638.67,378.32,638.96,378.83z"/>
								<path style="fill:#2C529E;" d="M611.23,413.7c-6.48,17.24-13.22,34.93-25.56,48.61c-12.34,13.68-31.73,22.62-49.4,17.42
									C567.88,467.75,594.81,443.86,611.23,413.7z"/>
							</g>
							<g>
								<g>
									<path style="fill:none;stroke:#1F2F7A;stroke-linecap:round;stroke-miterlimit:10;" d="M543.83,395.55
										c32.36,2.4,64.5-3.01,94.19-16.11"/>
									<path style="fill:none;stroke:#1F2F7A;stroke-linecap:round;stroke-miterlimit:10;" d="M632.22,382.38
										c9.02,16.94,11.42,36.78,10.02,55.91c-1.4,19.14-7.18,42.01-12.24,60.52"/>
									<path style="fill:none;stroke:#1F2F7A;stroke-linecap:round;stroke-miterlimit:10;" d="M623.38,385.71
										c0.67,2.57,1.35,5.17,2.55,7.54s2.98,4.54,5.35,5.73c2.38,1.19,5.41,1.27,7.61-0.23"/>
								</g>
								<g>
									<path style="fill:none;stroke:#1F2F7A;stroke-linecap:round;stroke-miterlimit:10;" d="M578.53,395.33
										c1.73,13.4,1.94,26.99,0.61,40.44"/>
									<path style="fill:none;stroke:#1F2F7A;stroke-linecap:round;stroke-miterlimit:10;" d="M586.59,394.6
										c1.01,7.02,1.49,14.11,1.43,21.2c-0.02,1.97-0.13,4.09-1.35,5.63c-1.59,2-4.11,2.32-6.66,2.48"/>
								</g>
							</g>
						</g>
					</g>
					<g>
						<g>
							<path style="fill:#FEE46B;" d="M630.21,364.44c-16.24,12.93-85.73,12.08-89.41,4.52c-1.81-3.71-2.35-16.78-1.88-32.55
								c0.87-30.28,5.41-70.47,11.65-73.32c12.24-5.6,44.22-4.4,66.37,6.02c8.11,3.82,16.25,7.98,19.8,16.21
								c1.3,3.02,1.85,6.97,1.88,11.45c0.16,17.21-7.43,42.08-9.83,50.93C627.46,352.62,637.34,358.76,630.21,364.44z"/>
							<path style="fill:#F5CC53;" d="M630.21,364.44c-16.24,12.93-85.73,12.08-89.41,4.52c-1.81-3.71-2.35-16.78-1.88-32.55
								c12.89,6.86,27.38,10.55,41.68,8.36c17.05-2.62,32.02-13.31,43.17-26.46c5.66-6.67,10.48-13.97,14.84-21.56
								c0.16,17.21-7.43,42.08-9.83,50.93C627.46,352.62,637.34,358.76,630.21,364.44z"/>
						</g>
						<g>
							<g>
								<path style="fill:#FFF2A6;" d="M574.3,287.15c10.34,5.36,28.16,8.94,32.34,7.09c7.72-3.41,9.39-25.16,7.8-27.87
									c-2.25-3.85-6.91-6.5-11.37-6.59C592.58,270.43,582.65,274.33,574.3,287.15z"/>
								<path style="fill:#FFF2A6;" d="M585.55,262.08c-6.35-6.34-18.36-5.23-21.52-2.29c-5.03,4.68-14.92,20.9-14.14,27.29
									c0.38,3.13,20.89,1.05,24.41-0.26C577.96,276.32,579.85,273.61,585.55,262.08z"/>
							</g>
							<g>
								<circle style="fill:#EB9738;" cx="572.11" cy="295.52" r="2.2"/>
								<circle style="fill:#EB9738;" cx="570.79" cy="306.83" r="2.2"/>
							</g>
						</g>
						<g>
							<path style="fill:#F69887;" d="M574.07,287.82c13.93-6.7,34.88-15.66,34.61-19.74c-0.16-2.5-2.27-9.85-2.58-14.62
								c-0.3-4.49-0.09-9.08,0.7-13.67c-9.89,0.93-17.08,0.26-26.72,0.59c-0.14,3.22-0.51,7.96-1.35,12.59
								c-0.46,2.53-1.21,4.24-2.16,5.37c-1.4,1.67-3.7,0.71-5.17,1.98C568.3,263.03,570.43,276.26,574.07,287.82z"/>
							<path style="fill:#EB6C6A;" d="M576.58,258.33c4.49,1.08,9.15,1.37,13.73,0.79c5.56-0.7,10.97-2.67,15.79-5.67
								c-0.3-4.49-0.09-9.08,0.7-13.67c-9.89,0.93-17.08,0.26-26.72,0.59c-0.14,3.22-0.51,7.96-1.35,12.59
								C578.27,255.49,577.53,257.21,576.58,258.33z"/>
						</g>
						<g>
							<path style="fill:#F69887;" d="M541.75,390.05c9.08-4.88,13.03-7.84,16.94-14.23c0.59-6.17,0.82-12.36,1.05-18.54
								c-5.35-1.24-10.92-2.41-16.49-3.57c-1.52-0.32-3.07-0.64-4.62-0.45c-1.54,0.19-3.1,0.98-3.84,2.39
								c-0.74,1.41-0.39,3.46,1.84,4.21c-5.58,2.07-15.57,6.02-15.81,11.93c-0.05,1.25,0.94,2.35,2.03,2.9
								c1.09,0.55,2.33,0.65,4.04,1.25c-1.35,1.06-1.94,3.05-1.4,4.71c0.54,1.66,2.18,2.87,4.41,2.77
								c-0.86,1.22-0.88,3.02-0.03,4.26c0.85,1.24,2.49,1.82,3.89,1.38c-0.52,1.77,0.7,3.7,2.31,4.49c1.61,0.79,3.64,0.72,5.42,0.54
								C541.53,392.94,541.63,392.13,541.75,390.05z"/>
							<path style="fill:#F69887;" d="M548.47,375.6c27.76,5.33,75.44,0.96,84.9-5.89c6.72-4.87,10.29-71.65,6.31-80.55
								c-2.11-4.72-4.25-9.17-11.15-13.1c-7.74-4.41-13.97,12.18-15.28,21.31c-2.63,18.32-1.94,32.67-1.9,50.32
								c-19.6,6.94-40.81,9.7-61.53,9.7C550.09,360.88,548.52,372.15,548.47,375.6z"/>
						</g>
					</g>
					<g>
						<g>
							<path style="fill:#F69887;" d="M542.49,278.02c-3.2-6.37-8.3-13.13-9.37-17.81c-0.97-4.23,2.33-17.15,4.92-19.47
								c3.1-2.78,17.16-2.48,16.98,0.4c-0.1,1.55-1.61,2.62-3.11,2.79c-1.5,0.17-7.91,1.44-8.72,1.75
								c-0.91,0.35-1.54,2.18-1.75,6.13c4.83-3.7,6.52-5.57,9.59-5.21c1.84,0.22,3.3,1.93,3.16,4.42c0.72-0.87,2.87-0.91,3.83-0.35
								c2.04,1.2,2.45,3.03,2.15,5.36c3.47-1.61,3.62,2.36,3.79,5.31c0.17,2.95,0.06,5.93-0.45,8.84c-0.31,1.78-1.53,3.08-2.75,2.57
								c-1.85-0.76-2.14-4.94-2.39-7.52c-0.62,0.18-2.25,1.4-2.46,2.36c3.33,3.5,5.84,9.74,3.37,15.35
								C551.4,285.81,546.08,285.18,542.49,278.02z"/>
							<g>
								<path style="fill:none;stroke:#A83B4F;stroke-linecap:round;stroke-miterlimit:10;" d="M553.6,251.4
									c-2.73,1.47-5.31,3.23-7.66,5.25"/>
								<path style="fill:none;stroke:#A83B4F;stroke-linecap:round;stroke-miterlimit:10;" d="M559.47,256.16
									c-2.56,1.33-4.89,3.1-6.86,5.2"/>
							</g>
						</g>
						<g>
							<path style="fill:#F69887;" d="M559.82,281.01c-2.31,20.87-4.62,41.73-6.93,62.59c-0.02,0.22-0.05,0.44-0.08,0.67
								c-0.79,6.96-2.23,14.66-8.06,18.45c-5.84,3.81-16.76,4.13-20.41-5.69c-0.15-0.39-0.27-0.8-0.39-1.22
								c-2.27-8.17,1.19-20.96,5.86-30.76c6.44-13.49,11.54-32.42,13.8-47.19C548.77,278.41,553.95,278.97,559.82,281.01z"/>
							<path style="fill:#EB8175;" d="M552.8,344.27c-0.79,6.96-2.23,14.66-8.06,18.45c-5.84,3.81-16.76,4.13-20.41-5.69
								c-0.15-0.39-0.27-0.8-0.39-1.22c0.08,0.08,0.18,0.17,0.26,0.24c2.86,2.51,6.63,4.17,10.44,3.9
								c3.85-0.26,7.34-2.42,10.18-5.04C548.15,351.87,550.73,348.24,552.8,344.27z"/>
						</g>
					</g>
					<g>
						<path style="fill:#EB6C6A;" d="M541.41,216.49c-2.03,4.04,1.18,9.48,7.18,12.15s12.51,1.55,14.54-2.49
							c2.03-4.04-1.18-9.48-7.18-12.15C549.96,211.33,543.45,212.45,541.41,216.49z"/>
						<g>
							<path style="fill:#F69887;" d="M552.28,215.88c0.35,21.48,9.79,38.36,25.77,39.32c18.62,1.11,41.46-14.7,44.75-40.04
								c2.77-21.3-14.99-38.98-34.98-38.69C567.84,176.75,551.93,194.4,552.28,215.88z"/>
							<path style="fill:#EB6C6A;" d="M614.43,210.9c-15.23,0.31-30.4-7.51-38.88-20.02c-9.66,5.57-17.81,13.73-23.37,23.4
								c0.23-10.35,4-20.6,10.53-28.63c1.62-1.99,3.48-3.9,5.85-4.89c2.31-0.96,4.89-0.95,7.39-0.9c11.06,0.24,22.1,1.15,33.05,2.71
								c0.86,0.12,1.75,0.26,2.45,0.78c1.11,0.83,1.37,2.36,1.54,3.73C613.9,194.5,614.58,201.94,614.43,210.9z"/>
						</g>
						<g>
							<path style="fill:none;stroke:#A83B4F;stroke-linecap:round;stroke-miterlimit:10;" d="M567.96,221.32
								c-1.41,2.73-1.45,6.12-0.1,8.88"/>
							<path style="fill:none;stroke:#A83B4F;stroke-linecap:round;stroke-miterlimit:10;" d="M572.19,238.26
								c3.91-1.43,8.57-0.57,11.73,2.15"/>
							<g>
								<g>
									<g>
										<path style="fill:#1C2B45;" d="M561.37,221.13c0.93,0.07,1.62-0.93,1.75-2.53c0.13-1.6-0.39-2.68-1.32-2.75
											c-0.93-0.07-1.62,0.93-1.75,2.53C559.92,219.99,560.44,221.07,561.37,221.13z"/>
									</g>
								</g>
								<g>
									<g>
										<path style="fill:#1C2B45;" d="M585.3,222.61c0.93,0.07,1.62-0.93,1.75-2.53c0.13-1.6-0.39-2.68-1.32-2.75
											c-0.93-0.07-1.62,0.93-1.75,2.53S584.37,222.54,585.3,222.61z"/>
									</g>
								</g>
								<path style="fill:none;stroke:#271F64;stroke-linecap:round;stroke-miterlimit:10;" d="M556.5,209.24
									c3.53,0.99,8.29-0.63,10.18-3.21"/>
								<path style="fill:none;stroke:#271F64;stroke-linecap:round;stroke-miterlimit:10;" d="M582.85,206.49
									c3.91-1.38,8.63-0.08,11.27,3.12"/>
							</g>
						</g>
						<g>
							<path style="fill:#17194D;" d="M625.8,224.86c-3.5,3.86-3.96,3.44-8.06,5.69c-2.36-6.34-4.46-11.85-6.74-18
								c-16.42-3.11-25.7-13.6-34.68-27.08c-10.58,6.5-19.95,15.94-24.05,31.34c-3.77-6.24-5.45-13.38-5.47-20.64
								c-0.01-2.98,0.27-5.98,0.78-8.94c0.69-3.89,1.87-7.75,4.02-11.06c2.16-3.3,5.35-6.05,9.14-7.12
								c6.12-1.75,12.54-0.43,18.33,2.2c8.54-3.04,17.48-3.43,26.16-0.96c2.9,0.82,5.75,2.03,8.41,3.59
								c5.34,3.07,9.94,7.53,12.64,12.89C631.49,197.07,629.01,213.08,625.8,224.86z"/>
							<path style="fill:#2B356E;" d="M613.66,173.88c-11.03-3.25-23.22-2.57-33.75,2.07c-8.61-2.84-18.44,0.62-24.84,7.04
								c-3.69,3.72-6.38,8.28-8.26,13.18c-0.01-2.98,0.27-5.98,0.78-8.94c0.69-3.89,1.87-7.75,4.02-11.06
								c2.16-3.3,5.35-6.05,9.14-7.12c6.12-1.75,12.54-0.43,18.33,2.2c8.54-3.04,17.48-3.43,26.16-0.96
								C608.14,171.11,610.99,172.33,613.66,173.88z"/>
						</g>
						<path style="fill:#F69887;" d="M633.12,226.72c1.32,4.24-2.64,8.81-8.84,10.21c-6.2,1.4-12.3-0.9-13.62-5.14
							c-1.32-4.24,2.64-8.81,8.84-10.21C625.7,220.17,631.8,222.48,633.12,226.72z"/>
					</g>
				</g>
			</g>
		</g>
	</g>
</g>
</svg>
