<svg width="21" height="19" viewBox="0 0 21 19" fill="none" xmlns="http://www.w3.org/2000/svg">
<path d="M11.3712 18.1011H1.58742C0.964561 18.1011 0.459961 17.656 0.459961 17.1072V1.08669C0.459961 0.537674 0.96464 0.0927734 1.58742 0.0927734H19.7605C20.3831 0.0927734 20.8879 0.537674 20.8879 1.08669V17.1072C20.8879 17.6561 20.383 18.1011 19.7605 18.1011H14.5549V11.1273H17.2102L17.6078 8.40948H14.5549V6.67432C14.5549 5.88745 14.8028 5.35122 16.0828 5.35122L17.7153 5.35059V2.91975C17.433 2.88662 16.4639 2.81263 15.3364 2.81263C12.9826 2.81263 11.3712 4.0792 11.3712 6.40516V8.40948H8.70906V11.1273H11.3712V18.1011Z" fill="#30CDBD"/>
</svg>
