<svg width="22" height="12" viewBox="0 0 22 12" fill="none" xmlns="http://www.w3.org/2000/svg">
<path fill-rule="evenodd" clip-rule="evenodd" d="M10.8283 6.68406C9.81335 6.68406 7.32063 6.6869 7.32063 6.6869V4.50767H13.5518C13.9858 7.14454 12.6767 11.0998 7.32063 11.0998C3.73733 11.0998 0.83252 8.63622 0.83252 5.59728C0.83252 2.55829 3.73733 0.0947266 7.32063 0.0947266C9.00201 0.0947266 10.534 0.637137 11.6866 1.52692C10.7934 2.24229 10.5071 2.51499 10.2638 2.74669C10.1372 2.86722 10.0223 2.97666 9.83968 3.13154C9.17295 2.66393 8.44609 2.32844 7.32063 2.32844C5.19195 2.32844 3.53054 3.79195 3.53054 5.59728C3.53054 7.40261 5.19195 8.86613 7.32063 8.86613C9.42406 8.86613 10.2787 8.0968 10.8283 6.68406ZM19.0121 2.70964V4.61647H21.2604V5.97849H19.0121V7.9398H17.4061V5.97849H15.0935V4.61647H17.4061V2.70964H19.0121Z" fill="#59D9CC"/>
</svg>
