<svg width="21" height="19" viewBox="0 0 21 19" fill="none" xmlns="http://www.w3.org/2000/svg">
<path fill-rule="evenodd" clip-rule="evenodd" d="M10.5719 0.0927734C7.79792 0.0927734 7.45009 0.103139 6.36066 0.146959C5.27351 0.190671 4.53102 0.342897 3.88134 0.565499C3.20968 0.795572 2.64007 1.10345 2.07221 1.60402C1.50438 2.10463 1.15513 2.60677 0.89415 3.19887C0.64164 3.77161 0.468961 4.42615 0.419376 5.38454C0.369668 6.34493 0.35791 6.65157 0.35791 9.09697C0.35791 11.5423 0.369668 11.849 0.419376 12.8094C0.468961 13.7678 0.64164 14.4223 0.89415 14.995C1.15513 15.5871 1.50438 16.0893 2.07221 16.5899C2.64007 17.0905 3.20968 17.3983 3.88134 17.6284C4.53102 17.851 5.27351 18.0032 6.36066 18.047C7.45009 18.0908 7.79792 18.1011 10.5719 18.1011C13.3458 18.1011 13.6936 18.0908 14.7831 18.047C15.8702 18.0032 16.6127 17.851 17.2624 17.6284C17.934 17.3983 18.5037 17.0905 19.0715 16.5899C19.6393 16.0893 19.9886 15.5871 20.2496 14.995C20.5021 14.4223 20.6748 13.7678 20.7244 12.8094C20.7741 11.849 20.7858 11.5423 20.7858 9.09697C20.7858 6.65157 20.7741 6.34493 20.7244 5.38454C20.6748 4.42615 20.5021 3.77161 20.2496 3.19887C19.9886 2.60677 19.6393 2.10463 19.0715 1.60402C18.5037 1.10345 17.934 0.795572 17.2624 0.565499C16.6127 0.342897 15.8702 0.190671 14.7831 0.146959C13.6936 0.103139 13.3458 0.0927734 10.5719 0.0927734ZM10.5719 1.71511C13.2991 1.71511 13.6221 1.72429 14.6992 1.76761C15.695 1.80764 16.2358 1.95433 16.5957 2.07764C17.0725 2.24098 17.4128 2.4361 17.7702 2.7512C18.1276 3.06627 18.3489 3.36622 18.5342 3.78651C18.6741 4.10379 18.8405 4.58056 18.8859 5.45845C18.935 6.40791 18.9455 6.6927 18.9455 9.09693C18.9455 11.5011 18.935 11.7859 18.8859 12.7354C18.8405 13.6133 18.6741 14.09 18.5342 14.4073C18.3489 14.8276 18.1276 15.1276 17.7702 15.4426C17.4128 15.7577 17.0725 15.9529 16.5957 16.1162C16.2358 16.2395 15.695 16.3862 14.6992 16.4262C13.6223 16.4695 13.2993 16.4787 10.5719 16.4787C7.84441 16.4787 7.52143 16.4695 6.44453 16.4262C5.44868 16.3862 4.90786 16.2395 4.54795 16.1162C4.07119 15.9529 3.73094 15.7577 3.37354 15.4426C3.01614 15.1276 2.79477 14.8276 2.60948 14.4073C2.46961 14.09 2.30321 13.6133 2.2578 12.7354C2.20866 11.7859 2.19824 11.5011 2.19824 9.09693C2.19824 6.6927 2.20866 6.40791 2.2578 5.45845C2.30321 4.58056 2.46961 4.10379 2.60948 3.78651C2.79477 3.36622 3.0161 3.06627 3.37354 2.7512C3.73094 2.4361 4.07119 2.24098 4.54795 2.07764C4.90786 1.95433 5.44868 1.80764 6.44453 1.76761C7.52155 1.72429 7.84461 1.71511 10.5719 1.71511ZM5.32715 9.09702C5.32715 6.54334 7.6754 4.47323 10.5722 4.47323C13.4689 4.47323 15.8171 6.54334 15.8171 9.09702C15.8171 11.6506 13.4689 13.7208 10.5722 13.7208C7.6754 13.7208 5.32715 11.6506 5.32715 9.09702ZM10.5719 12.0984C8.69154 12.0984 7.16724 10.7546 7.16724 9.09701C7.16724 7.43936 8.69154 6.0956 10.5719 6.0956C12.4522 6.0956 13.9765 7.43936 13.9765 9.09701C13.9765 10.7546 12.4522 12.0984 10.5719 12.0984ZM16.024 5.371C16.7009 5.371 17.2497 4.88726 17.2497 4.29051C17.2497 3.69376 16.7009 3.20999 16.024 3.20999C15.3471 3.20999 14.7983 3.69376 14.7983 4.29051C14.7983 4.88726 15.3471 5.371 16.024 5.371Z" fill="#59D9CC"/>
</svg>
