<svg width="21" height="17" viewBox="0 0 21 17" fill="none" xmlns="http://www.w3.org/2000/svg">
<path fill-rule="evenodd" clip-rule="evenodd" d="M2.81471 3.86629H2.78589C1.34459 3.86629 0.410156 3.03501 0.410156 1.98131C0.410156 0.907112 1.37222 0.0932617 2.84234 0.0932617C4.31125 0.0932617 5.21446 0.905062 5.24329 1.97824C5.24329 3.03194 4.31125 3.86629 2.81471 3.86629ZM20.838 16.1008H16.3231V10.4735C16.3231 9.00062 15.6169 7.9951 14.0639 7.9951C12.8761 7.9951 12.2155 8.67365 11.908 9.3276C11.8065 9.53427 11.8083 9.81245 11.8102 10.0992C11.8104 10.1381 11.8107 10.1772 11.8107 10.2163V16.1008H7.33789C7.33789 16.1008 7.39554 6.13267 7.33789 5.22657H11.8107V6.9332C12.0749 6.187 13.5042 5.12202 15.7851 5.12202C18.6148 5.12202 20.838 6.68617 20.838 10.0543V16.1008ZM4.90686 5.22657H0.925293V16.1008H4.90686V5.22657Z" fill="#30CDBD"/>
</svg>
