<svg width="21" height="19" viewBox="0 0 21 19" fill="none" xmlns="http://www.w3.org/2000/svg">
<path d="M10.5212 0.0927734C4.88061 0.0927734 0.306641 4.12393 0.306641 9.09749C0.306641 12.7834 2.82184 15.9516 6.42168 17.344C6.39285 16.7161 6.41688 15.9601 6.59825 15.276C6.79524 14.5454 7.9123 10.3703 7.9123 10.3703C7.9123 10.3703 7.58679 9.79529 7.58679 8.94501C7.58679 7.61082 8.46483 6.61441 9.55667 6.61441C10.4852 6.61441 10.9344 7.22962 10.9344 7.9666C10.9344 8.78935 10.3386 10.0208 10.0323 11.1612C9.77648 12.1174 10.5752 12.8957 11.6443 12.8957C13.5793 12.8957 14.8826 10.7049 14.8826 8.10849C14.8826 6.1358 13.3751 4.65866 10.6329 4.65866C7.53514 4.65866 5.6049 6.69489 5.6049 8.96936C5.6049 9.75505 5.86675 10.3078 6.27754 10.7356C6.46732 10.9336 6.49255 11.0119 6.42408 11.2385C6.37604 11.4027 6.26313 11.8029 6.21628 11.9607C6.14782 12.1884 5.93882 12.2709 5.7058 12.1862C4.27763 11.6727 3.6134 10.2951 3.6134 8.74594C3.6134 6.18874 6.06014 3.12011 10.9128 3.12011C14.8129 3.12011 17.3797 5.60954 17.3797 8.27897C17.3797 11.8114 15.1528 14.4501 11.8677 14.4501C10.7662 14.4501 9.72844 13.9249 9.3729 13.3288C9.3729 13.3288 8.77953 15.4031 8.65461 15.8034C8.43841 16.4969 8.0144 17.1916 7.62643 17.7316C8.54531 17.9709 9.51583 18.1011 10.5212 18.1011C16.1618 18.1011 20.7345 14.07 20.7345 9.09749C20.7345 4.12393 16.1618 0.0927734 10.5212 0.0927734Z" fill="#59D9CC"/>
</svg>
