<svg width="22" height="19" viewBox="0 0 22 19" fill="none" xmlns="http://www.w3.org/2000/svg">
<path fill-rule="evenodd" clip-rule="evenodd" d="M21.2091 18.1011H17.3184C17.3184 10.0623 9.90022 3.52272 0.781443 3.52272V0.0927734C12.0451 0.0927734 21.2091 8.17145 21.2091 18.1011ZM0.781738 15.5285C0.781738 14.1077 2.08838 12.9559 3.69998 12.9559C5.31158 12.9559 6.61822 14.1077 6.61822 15.5285C6.61822 16.9492 5.31158 18.1011 3.69998 18.1011C2.08838 18.1011 0.781738 16.9492 0.781738 15.5285ZM10.5092 18.1011H14.4C14.4 11.4811 8.29061 6.09534 0.78125 6.09534V9.52593C6.14498 9.52593 10.5092 13.3726 10.5092 18.1011Z" fill="#59D9CC"/>
</svg>
