<svg width="24" height="19" viewBox="0 0 24 19" fill="none" xmlns="http://www.w3.org/2000/svg">
<path fill-rule="evenodd" clip-rule="evenodd" d="M6.42295 0.0629883H17.7718C18.396 0.0629883 18.9067 0.513197 18.9067 1.06345V3.06438C18.9067 3.61464 18.396 4.06485 17.7718 4.06485H6.42295C5.79877 4.06485 5.28807 3.61464 5.28807 3.06438V1.06345C5.28807 0.513197 5.79877 0.0629883 6.42295 0.0629883ZM4.15319 5.06531H20.0416C21.9255 5.06531 23.4462 6.40593 23.4462 8.06671V12.0686C23.4462 13.1691 22.4248 14.0695 21.1764 14.0695H18.9067V16.0704C18.9067 17.1709 17.8853 18.0714 16.6369 18.0714H7.55784C6.30946 18.0714 5.28807 17.1709 5.28807 16.0704V14.0695H3.0183C1.76993 14.0695 0.748535 13.1691 0.748535 12.0686V8.06671C0.748535 6.40593 2.26928 5.06531 4.15319 5.06531ZM8.69272 16.0704H15.502C16.1262 16.0704 16.6369 15.6202 16.6369 15.07V11.0681H7.55784V15.07C7.55784 15.6202 8.06853 16.0704 8.69272 16.0704ZM20.0416 9.06717C19.4174 9.06717 18.9067 8.61696 18.9067 8.06671C18.9067 7.51645 19.4174 7.06624 20.0416 7.06624C20.6657 7.06624 21.1764 7.51645 21.1764 8.06671C21.1764 8.61696 20.6657 9.06717 20.0416 9.06717Z" fill="#30CDBD"/>
</svg>
