<svg width="17" height="20" viewBox="0 0 17 20" fill="none" xmlns="http://www.w3.org/2000/svg">
<path fill-rule="evenodd" clip-rule="evenodd" d="M0.241699 7.0472C0.241699 3.1754 3.79389 0.0439453 8.18588 0.0439453C12.5779 0.0439453 16.1301 3.1754 16.1301 7.0472C16.1301 11.2191 11.1139 16.9718 9.05974 19.1628C8.60579 19.643 7.77733 19.643 7.32337 19.1628C5.25788 16.9718 0.241699 11.2191 0.241699 7.0472ZM5.34868 7.0472C5.34868 8.42784 6.61975 9.54836 8.18588 9.54836C9.75202 9.54836 11.0231 8.42784 11.0231 7.0472C11.0231 5.66656 9.75202 4.54604 8.18588 4.54604C6.61975 4.54604 5.34868 5.66656 5.34868 7.0472Z" fill="#30CDBD"/>
</svg>
