<svg width="22" height="16" viewBox="0 0 22 16" fill="none" xmlns="http://www.w3.org/2000/svg">
<path d="M21.363 1.87031C20.6124 2.17164 19.8042 2.37542 18.9565 2.46647C19.8222 1.99821 20.4865 1.25572 20.7994 0.371235C19.9889 0.804806 19.0932 1.12023 18.1364 1.28932C17.3738 0.553335 16.2839 0.09375 15.0776 0.09375C12.7647 0.09375 10.8882 1.7901 10.8882 3.88208C10.8882 4.17907 10.9242 4.4674 10.9961 4.74488C7.51295 4.58663 4.42544 3.07997 2.35711 0.785296C1.9962 1.34677 1.78997 1.99821 1.78997 2.69192C1.78997 4.00564 2.52977 5.16545 3.65446 5.84507C2.96862 5.82664 2.32114 5.6543 1.7552 5.37248V5.41908C1.7552 7.25526 3.20003 8.78685 5.11848 9.1337C4.76716 9.22259 4.39666 9.26703 4.01417 9.26703C3.74439 9.26703 3.4806 9.24426 3.22521 9.19982C3.75878 10.7043 5.30553 11.8002 7.14005 11.8294C5.70601 12.8462 3.89787 13.4521 1.93505 13.4521C1.59692 13.4521 1.26239 13.4347 0.935059 13.4C2.78996 14.4731 4.99378 15.1007 7.35947 15.1007C15.0692 15.1007 19.2838 9.32881 19.2838 4.32215C19.2838 4.15739 19.2802 3.99264 19.2731 3.83113C20.092 3.29675 20.803 2.63014 21.363 1.87031Z" fill="#59D9CC"/>
</svg>
