<svg width="22" height="14" viewBox="0 0 22 14" fill="none" xmlns="http://www.w3.org/2000/svg">
<path fill-rule="evenodd" clip-rule="evenodd" d="M20.2954 1.06448C20.9076 1.62558 21.1074 2.89978 21.1074 2.89978C21.1074 2.89978 21.3117 4.39645 21.3117 5.89255V7.29561C21.3117 8.79228 21.1074 10.2884 21.1074 10.2884C21.1074 10.2884 20.9076 11.5626 20.2954 12.1237C19.5955 12.7875 18.8194 12.856 18.3807 12.8948C18.3325 12.8991 18.2883 12.903 18.2488 12.9073C15.3902 13.0945 11.0977 13.1003 11.0977 13.1003C11.0977 13.1003 5.78649 13.0564 4.15225 12.9142C4.07483 12.9011 3.98096 12.8909 3.87467 12.8794C3.35701 12.8232 2.54452 12.735 1.89944 12.1237C1.28724 11.5626 1.08807 10.2884 1.08807 10.2884C1.08807 10.2884 0.883789 8.79228 0.883789 7.29561V5.89255C0.883789 4.39645 1.08807 2.89978 1.08807 2.89978C1.08807 2.89978 1.28724 1.62558 1.89944 1.06448C2.60092 0.399764 3.37775 0.331924 3.81645 0.293611C3.86402 0.289457 3.90761 0.28565 3.9467 0.281467C6.80533 0.0942383 11.0933 0.0942383 11.0933 0.0942383H11.1022C11.1022 0.0942383 15.3902 0.0942383 18.2488 0.281467C18.2879 0.285656 18.3315 0.289468 18.3791 0.293629C18.8175 0.331946 19.5946 0.399872 20.2954 1.06448ZM8.98779 3.80006L8.98843 8.99566L14.5072 6.40682L8.98779 3.80006Z" fill="#59D9CC"/>
</svg>
